<?xml version="1.0" encoding="utf-8" standalone="no"?>
<!DOCTYPE svg PUBLIC "-//W3C//DTD SVG 1.1//EN"
  "http://www.w3.org/Graphics/SVG/1.1/DTD/svg11.dtd">
<svg xmlns:xlink="http://www.w3.org/1999/xlink" width="486.542188pt" height="325.755469pt" viewBox="0 0 486.542188 325.755469" xmlns="http://www.w3.org/2000/svg" version="1.1">
 <metadata>
  <rdf:RDF xmlns:dc="http://purl.org/dc/elements/1.1/" xmlns:cc="http://creativecommons.org/ns#" xmlns:rdf="http://www.w3.org/1999/02/22-rdf-syntax-ns#">
   <cc:Work>
    <dc:type rdf:resource="http://purl.org/dc/dcmitype/StillImage"/>
    <dc:date>2024-10-24T17:34:48.893018</dc:date>
    <dc:format>image/svg+xml</dc:format>
    <dc:creator>
     <cc:Agent>
      <dc:title>Matplotlib v3.9.2, https://matplotlib.org/</dc:title>
     </cc:Agent>
    </dc:creator>
   </cc:Work>
  </rdf:RDF>
 </metadata>
 <defs>
  <style type="text/css">*{stroke-linejoin: round; stroke-linecap: butt}</style>
 </defs>
 <g id="figure_1">
  <g id="patch_1">
   <path d="M 0 325.755469 
L 486.542188 325.755469 
L 486.542188 0 
L 0 0 
z
" style="fill: #ffffff"/>
  </g>
  <g id="axes_1">
   <g id="patch_2">
    <path d="M 52.160938 288.199219 
L 442.760938 288.199219 
L 442.760938 10.999219 
L 52.160938 10.999219 
z
" style="fill: #ffffff"/>
   </g>
   <g id="PolyCollection_1">
    <path d="M 70.270929 -225.946553 
L 70.270929 513.279752 
L 70.626376 513.279752 
L 70.981822 513.279752 
L 71.337268 513.279752 
L 71.692715 513.279752 
L 72.048161 513.279752 
L 72.403607 513.279752 
L 72.759054 513.279752 
L 73.1145 513.279752 
L 73.469947 513.279752 
L 73.825393 513.279752 
L 74.180839 513.279752 
L 74.536286 472.053288 
L 74.891732 472.053288 
L 75.247178 472.053288 
L 75.602625 472.053288 
L 75.958071 472.053288 
L 76.313517 472.053288 
L 76.668964 472.053288 
L 77.02441 419.370492 
L 77.379856 359.266254 
L 77.735303 359.266254 
L 78.090749 359.266254 
L 78.446195 330.087795 
L 78.801642 302.716838 
L 79.157088 302.716838 
L 79.512535 302.716838 
L 79.867981 302.716838 
L 80.223427 291.739438 
L 80.578874 291.739438 
L 80.93432 291.739438 
L 81.289766 280.488306 
L 81.645213 280.488306 
L 82.000659 280.488306 
L 82.356105 280.488306 
L 82.711552 280.488306 
L 83.066998 276.135584 
L 83.422444 276.135584 
L 83.777891 266.118679 
L 84.133337 255.911653 
L 84.488784 247.340649 
L 84.84423 247.340649 
L 85.199676 241.559008 
L 85.555123 241.559008 
L 85.910569 241.559008 
L 86.266015 237.933101 
L 86.621462 237.933101 
L 86.976908 237.933101 
L 87.332354 237.933101 
L 87.687801 237.933101 
L 88.043247 237.933101 
L 88.398693 237.933101 
L 88.75414 237.933101 
L 89.109586 237.933101 
L 89.465033 237.933101 
L 89.820479 237.933101 
L 90.175925 237.933101 
L 90.531372 237.933101 
L 90.886818 237.933101 
L 91.242264 237.933101 
L 91.597711 237.933101 
L 91.953157 237.933101 
L 92.308603 237.933101 
L 92.66405 237.933101 
L 93.019496 237.933101 
L 93.374942 237.933101 
L 93.730389 237.933101 
L 94.085835 237.933101 
L 94.441281 237.933101 
L 94.796728 237.933101 
L 95.152174 237.933101 
L 95.507621 237.933101 
L 95.863067 237.933101 
L 96.218513 237.933101 
L 96.57396 237.933101 
L 96.929406 237.933101 
L 97.284852 237.933101 
L 97.640299 237.933101 
L 97.995745 237.933101 
L 98.351191 233.539892 
L 98.706638 233.539892 
L 99.062084 230.257791 
L 99.41753 230.257791 
L 99.772977 230.257791 
L 100.128423 228.153559 
L 100.48387 228.153559 
L 100.839316 225.305895 
L 101.194762 225.305895 
L 101.550209 225.305895 
L 101.905655 225.305895 
L 102.261101 224.363015 
L 102.616548 224.363015 
L 102.971994 224.363015 
L 103.32744 224.363015 
L 103.682887 224.363015 
L 104.038333 224.298684 
L 104.393779 224.298684 
L 104.749226 224.298684 
L 105.104672 224.298684 
L 105.460118 224.298684 
L 105.815565 224.298684 
L 106.171011 224.298684 
L 106.526458 224.298684 
L 106.881904 222.60011 
L 107.23735 222.60011 
L 107.592797 222.60011 
L 107.948243 221.063871 
L 108.303689 221.063871 
L 108.659136 218.884939 
L 109.014582 218.884939 
L 109.370028 218.884939 
L 109.725475 217.529157 
L 110.080921 217.529157 
L 110.436367 217.529157 
L 110.791814 216.241052 
L 111.14726 213.686374 
L 111.502707 211.261109 
L 111.858153 208.953303 
L 112.213599 208.953303 
L 112.569046 208.953303 
L 112.924492 208.953303 
L 113.279938 208.953303 
L 113.635385 208.953303 
L 113.990831 208.953303 
L 114.346277 208.953303 
L 114.701724 208.953303 
L 115.05717 208.837787 
L 115.412616 208.837787 
L 115.768063 208.837787 
L 116.123509 208.837787 
L 116.478956 208.483895 
L 116.834402 208.483895 
L 117.189848 208.483895 
L 117.545295 207.567587 
L 117.900741 207.567587 
L 118.256187 206.125214 
L 118.611634 206.125214 
L 118.96708 204.738864 
L 119.322526 202.866511 
L 119.677973 202.866511 
L 120.033419 202.866511 
L 120.388865 202.866511 
L 120.744312 202.866511 
L 121.099758 202.866511 
L 121.455204 202.866511 
L 121.810651 202.866511 
L 122.166097 202.866511 
L 122.521544 202.866511 
L 122.87699 202.866511 
L 123.232436 202.866511 
L 123.587883 202.866511 
L 123.943329 202.866511 
L 124.298775 202.866511 
L 124.654222 202.866511 
L 125.009668 202.866511 
L 125.365114 202.866511 
L 125.720561 202.866511 
L 126.076007 202.866511 
L 126.431453 201.816312 
L 126.7869 201.816312 
L 127.142346 201.816312 
L 127.497793 201.816312 
L 127.853239 201.620134 
L 128.208685 201.620134 
L 128.564132 201.620134 
L 128.919578 201.620134 
L 129.275024 201.620134 
L 129.630471 201.620134 
L 129.985917 201.620134 
L 130.341363 201.620134 
L 130.69681 201.620134 
L 131.052256 201.620134 
L 131.407702 201.620134 
L 131.763149 201.620134 
L 132.118595 201.620134 
L 132.474042 201.620134 
L 132.829488 201.620134 
L 133.184934 201.620134 
L 133.540381 201.620134 
L 133.895827 201.620134 
L 134.251273 201.620134 
L 134.60672 201.620134 
L 134.962166 201.620134 
L 135.317612 201.620134 
L 135.673059 201.620134 
L 136.028505 201.620134 
L 136.383951 201.620134 
L 136.739398 201.620134 
L 137.094844 201.620134 
L 137.45029 201.620134 
L 137.805737 201.620134 
L 138.161183 201.620134 
L 138.51663 201.213635 
L 138.872076 199.7674 
L 139.227522 198.360585 
L 139.582969 198.360585 
L 139.938415 198.360585 
L 140.293861 198.360585 
L 140.649308 198.22487 
L 141.004754 196.875373 
L 141.3602 196.875373 
L 141.715647 195.960751 
L 142.071093 195.960751 
L 142.426539 195.960751 
L 142.781986 195.960751 
L 143.137432 195.960751 
L 143.492879 195.960751 
L 143.848325 195.960751 
L 144.203771 195.369905 
L 144.559218 195.369905 
L 144.914664 194.506644 
L 145.27011 194.506644 
L 145.625557 194.506644 
L 145.981003 194.506644 
L 146.336449 194.506644 
L 146.691896 194.506644 
L 147.047342 194.506644 
L 147.402788 193.968088 
L 147.758235 193.968088 
L 148.113681 193.968088 
L 148.469128 193.968088 
L 148.824574 193.968088 
L 149.18002 193.968088 
L 149.535467 193.968088 
L 149.890913 193.451546 
L 150.246359 193.451546 
L 150.601806 192.658136 
L 150.957252 191.523292 
L 151.312698 190.411876 
L 151.668145 190.411876 
L 152.023591 190.411876 
L 152.379037 190.026826 
L 152.734484 190.026826 
L 153.08993 190.026826 
L 153.445376 190.026826 
L 153.800823 190.026826 
L 154.156269 190.026826 
L 154.511716 190.026826 
L 154.867162 190.026826 
L 155.222608 190.026826 
L 155.578055 190.026826 
L 155.933501 190.026826 
L 156.288947 190.026826 
L 156.644394 189.936475 
L 156.99984 189.936475 
L 157.355286 189.936475 
L 157.710733 189.936475 
L 158.066179 189.936475 
L 158.421625 189.936475 
L 158.777072 189.936475 
L 159.132518 189.542947 
L 159.487965 189.542947 
L 159.843411 188.858457 
L 160.198857 188.858457 
L 160.554304 188.186828 
L 160.90975 188.186828 
L 161.265196 188.186828 
L 161.620643 188.186828 
L 161.976089 188.186828 
L 162.331535 188.186828 
L 162.686982 187.520265 
L 163.042428 186.562191 
L 163.397874 186.562191 
L 163.753321 185.935128 
L 164.108767 185.935128 
L 164.464214 185.935128 
L 164.81966 185.935128 
L 165.175106 185.935128 
L 165.530553 185.935128 
L 165.885999 185.935128 
L 166.241445 185.935128 
L 166.596892 185.935128 
L 166.952338 185.935128 
L 167.307784 185.935128 
L 167.663231 185.935128 
L 168.018677 185.935128 
L 168.374123 185.935128 
L 168.72957 185.935128 
L 169.085016 185.935128 
L 169.440462 185.935128 
L 169.795909 185.935128 
L 170.151355 185.935128 
L 170.506802 185.935128 
L 170.862248 185.935128 
L 171.217694 185.935128 
L 171.573141 185.935128 
L 171.928587 185.669401 
L 172.284033 185.669401 
L 172.63948 185.08768 
L 172.994926 185.08768 
L 173.350372 184.515285 
L 173.705819 184.515285 
L 174.061265 184.515285 
L 174.416711 184.515285 
L 174.772158 184.515285 
L 175.127604 184.515285 
L 175.483051 184.515285 
L 175.838497 184.515285 
L 176.193943 184.515285 
L 176.54939 184.515285 
L 176.904836 183.9901 
L 177.260282 183.9901 
L 177.615729 183.9901 
L 177.971175 183.9901 
L 178.326621 183.9901 
L 178.682068 183.9901 
L 179.037514 183.9901 
L 179.39296 183.9901 
L 179.748407 183.9901 
L 180.103853 183.9901 
L 180.459299 183.9901 
L 180.814746 183.9901 
L 181.170192 183.9901 
L 181.525639 183.9901 
L 181.881085 183.9901 
L 182.236531 183.9901 
L 182.591978 183.9901 
L 182.947424 183.9901 
L 183.30287 183.9901 
L 183.658317 183.9901 
L 184.013763 183.9901 
L 184.369209 183.9901 
L 184.724656 183.9901 
L 185.080102 183.9901 
L 185.435548 183.9901 
L 185.790995 183.9901 
L 186.146441 183.9901 
L 186.501888 183.9901 
L 186.857334 183.9901 
L 187.21278 183.9901 
L 187.568227 183.9901 
L 187.923673 183.9901 
L 188.279119 183.9901 
L 188.634566 183.9901 
L 188.990012 183.9901 
L 189.345458 183.9901 
L 189.700905 183.9901 
L 190.056351 183.9901 
L 190.411797 183.9901 
L 190.767244 183.9901 
L 191.12269 183.9901 
L 191.478137 183.364715 
L 191.833583 182.612529 
L 192.189029 182.612529 
L 192.544476 182.612529 
L 192.899922 182.612529 
L 193.255368 182.612529 
L 193.610815 182.612529 
L 193.966261 182.612529 
L 194.321707 182.402113 
L 194.677154 181.671862 
L 195.0326 181.671862 
L 195.388046 181.671862 
L 195.743493 181.671862 
L 196.098939 181.671862 
L 196.454385 181.671862 
L 196.809832 181.671862 
L 197.165278 181.47838 
L 197.520725 180.768725 
L 197.876171 180.768725 
L 198.231617 180.768725 
L 198.587064 180.557105 
L 198.94251 180.557105 
L 199.297956 180.105194 
L 199.653403 180.105194 
L 200.008849 179.658921 
L 200.364295 179.658921 
L 200.719742 179.658921 
L 201.075188 179.658921 
L 201.430634 179.658921 
L 201.786081 179.658921 
L 202.141527 179.658921 
L 202.496974 179.658921 
L 202.85242 179.658921 
L 203.207866 179.658921 
L 203.563313 179.658921 
L 203.918759 179.658921 
L 204.274205 179.658921 
L 204.629652 179.658921 
L 204.985098 179.658921 
L 205.340544 179.658921 
L 205.695991 179.658921 
L 206.051437 179.658921 
L 206.406883 179.658921 
L 206.76233 179.658921 
L 207.117776 179.658921 
L 207.473223 179.658921 
L 207.828669 179.658921 
L 208.184115 179.658921 
L 208.539562 179.658921 
L 208.895008 179.658921 
L 209.250454 179.658921 
L 209.605901 179.658921 
L 209.961347 179.658921 
L 210.316793 179.658921 
L 210.67224 179.658921 
L 211.027686 179.658921 
L 211.383132 179.658921 
L 211.738579 179.658921 
L 212.094025 179.658921 
L 212.449471 179.658921 
L 212.804918 179.658921 
L 213.160364 179.340237 
L 213.515811 179.340237 
L 213.871257 178.929662 
L 214.226703 178.929662 
L 214.58215 178.929662 
L 214.937596 178.929662 
L 215.293042 178.929662 
L 215.648489 178.929662 
L 216.003935 178.929662 
L 216.359381 178.929662 
L 216.714828 178.929662 
L 217.070274 178.929662 
L 217.42572 178.929662 
L 217.781167 178.822473 
L 218.136613 178.822473 
L 218.49206 178.424718 
L 218.847506 178.424718 
L 219.202952 178.424718 
L 219.558399 178.424718 
L 219.913845 178.424718 
L 220.269291 178.424718 
L 220.624738 178.424718 
L 220.980184 178.424718 
L 221.33563 178.424718 
L 221.691077 178.424718 
L 222.046523 178.424718 
L 222.401969 178.424718 
L 222.757416 178.424718 
L 223.112862 178.424718 
L 223.468309 178.424718 
L 223.823755 178.424718 
L 224.179201 178.424718 
L 224.534648 178.424718 
L 224.890094 178.424718 
L 225.24554 178.424718 
L 225.600987 178.424718 
L 225.956433 178.424718 
L 226.311879 178.424718 
L 226.667326 178.424718 
L 227.022772 178.424718 
L 227.378218 178.424718 
L 227.733665 178.424718 
L 228.089111 178.424718 
L 228.444557 177.891504 
L 228.800004 177.313292 
L 229.15545 177.313292 
L 229.510897 177.313292 
L 229.866343 177.313292 
L 230.221789 177.313292 
L 230.577236 177.313292 
L 230.932682 176.989637 
L 231.288128 176.424649 
L 231.643575 175.864699 
L 231.999021 175.309686 
L 232.354467 175.309686 
L 232.709914 175.309686 
L 233.06536 175.309686 
L 233.420806 175.309686 
L 233.776253 175.309686 
L 234.131699 175.309686 
L 234.487146 175.309686 
L 234.842592 175.309686 
L 235.198038 175.309686 
L 235.553485 175.068995 
L 235.908931 175.068995 
L 236.264377 175.068995 
L 236.619824 175.068995 
L 236.97527 175.068995 
L 237.330716 175.068995 
L 237.686163 175.068995 
L 238.041609 175.068995 
L 238.397055 175.068995 
L 238.752502 175.068995 
L 239.107948 174.834708 
L 239.463395 174.304713 
L 239.818841 174.304713 
L 240.174287 174.304713 
L 240.529734 174.304713 
L 240.88518 174.304713 
L 241.240626 174.304713 
L 241.596073 174.304713 
L 241.951519 174.304713 
L 242.306965 174.304713 
L 242.662412 174.304713 
L 243.017858 174.304713 
L 243.373304 174.304713 
L 243.728751 174.304713 
L 244.084197 174.304713 
L 244.439643 174.304713 
L 244.79509 174.304713 
L 245.150536 174.304713 
L 245.505983 174.304713 
L 245.861429 174.304713 
L 246.216875 174.304713 
L 246.572322 174.304713 
L 246.927768 174.061005 
L 247.283214 174.061005 
L 247.638661 174.061005 
L 247.994107 174.061005 
L 248.349553 174.061005 
L 248.705 174.061005 
L 249.060446 174.061005 
L 249.415892 174.061005 
L 249.771339 174.061005 
L 250.126785 174.061005 
L 250.482232 174.061005 
L 250.837678 174.061005 
L 251.193124 174.061005 
L 251.548571 174.061005 
L 251.904017 174.061005 
L 252.259463 174.061005 
L 252.61491 174.061005 
L 252.970356 174.061005 
L 253.325802 174.061005 
L 253.681249 174.061005 
L 254.036695 174.061005 
L 254.392141 174.061005 
L 254.747588 174.061005 
L 255.103034 174.061005 
L 255.45848 174.061005 
L 255.813927 174.061005 
L 256.169373 174.061005 
L 256.52482 174.061005 
L 256.880266 174.061005 
L 257.235712 174.061005 
L 257.591159 174.061005 
L 257.946605 174.061005 
L 258.302051 174.061005 
L 258.657498 174.061005 
L 259.012944 174.061005 
L 259.36839 174.061005 
L 259.723837 174.061005 
L 260.079283 174.061005 
L 260.434729 174.061005 
L 260.790176 174.061005 
L 261.145622 174.061005 
L 261.501069 174.061005 
L 261.856515 174.061005 
L 262.211961 174.061005 
L 262.567408 174.061005 
L 262.922854 174.061005 
L 263.2783 174.061005 
L 263.633747 174.061005 
L 263.989193 174.061005 
L 264.344639 174.061005 
L 264.700086 174.061005 
L 265.055532 174.061005 
L 265.410978 174.061005 
L 265.766425 174.061005 
L 266.121871 174.061005 
L 266.477318 174.061005 
L 266.832764 174.061005 
L 267.18821 174.061005 
L 267.543657 174.061005 
L 267.899103 174.061005 
L 268.254549 174.061005 
L 268.609996 174.061005 
L 268.965442 174.061005 
L 269.320888 174.061005 
L 269.676335 174.061005 
L 270.031781 174.061005 
L 270.387227 174.061005 
L 270.742674 174.061005 
L 271.09812 174.061005 
L 271.453566 174.061005 
L 271.809013 174.061005 
L 272.164459 174.061005 
L 272.519906 174.061005 
L 272.875352 174.061005 
L 273.230798 174.061005 
L 273.586245 174.061005 
L 273.941691 174.061005 
L 274.297137 174.061005 
L 274.652584 174.061005 
L 275.00803 174.061005 
L 275.363476 174.061005 
L 275.718923 174.061005 
L 276.074369 174.061005 
L 276.429815 174.061005 
L 276.785262 174.061005 
L 277.140708 174.061005 
L 277.496155 174.061005 
L 277.851601 174.061005 
L 278.207047 174.061005 
L 278.562494 174.061005 
L 278.91794 174.061005 
L 279.273386 174.061005 
L 279.628833 174.061005 
L 279.984279 174.061005 
L 280.339725 174.061005 
L 280.695172 174.061005 
L 281.050618 174.061005 
L 281.406064 174.061005 
L 281.761511 174.061005 
L 282.116957 174.061005 
L 282.472404 174.061005 
L 282.82785 174.061005 
L 283.183296 174.061005 
L 283.538743 174.061005 
L 283.894189 174.061005 
L 284.249635 174.061005 
L 284.605082 174.061005 
L 284.960528 174.061005 
L 285.315974 174.061005 
L 285.671421 174.061005 
L 286.026867 174.061005 
L 286.382313 174.061005 
L 286.73776 174.061005 
L 287.093206 174.061005 
L 287.448652 174.061005 
L 287.804099 174.061005 
L 288.159545 174.061005 
L 288.514992 174.061005 
L 288.870438 174.061005 
L 289.225884 174.061005 
L 289.581331 174.061005 
L 289.936777 174.061005 
L 290.292223 174.061005 
L 290.64767 174.061005 
L 291.003116 174.061005 
L 291.358562 174.061005 
L 291.714009 174.061005 
L 292.069455 174.061005 
L 292.424901 174.061005 
L 292.780348 174.061005 
L 293.135794 174.061005 
L 293.491241 174.061005 
L 293.846687 174.061005 
L 294.202133 174.061005 
L 294.55758 174.013107 
L 294.913026 174.013107 
L 295.268472 173.743796 
L 295.623919 173.743796 
L 295.979365 173.476453 
L 296.334811 173.476453 
L 296.690258 173.476453 
L 297.045704 173.476453 
L 297.40115 173.476453 
L 297.756597 173.476453 
L 298.112043 173.476453 
L 298.46749 173.476453 
L 298.822936 173.476453 
L 299.178382 173.476453 
L 299.533829 173.476453 
L 299.889275 173.476453 
L 300.244721 173.476453 
L 300.600168 173.476453 
L 300.955614 173.476453 
L 301.31106 173.476453 
L 301.666507 173.476453 
L 302.021953 173.476453 
L 302.377399 173.476453 
L 302.732846 173.476453 
L 303.088292 173.476453 
L 303.443738 173.476453 
L 303.799185 173.476453 
L 304.154631 173.476453 
L 304.510078 173.476453 
L 304.865524 173.476453 
L 305.22097 173.476453 
L 305.576417 173.476453 
L 305.931863 173.476453 
L 306.287309 173.476453 
L 306.642756 173.476453 
L 306.998202 173.476453 
L 307.353648 173.476453 
L 307.709095 173.476453 
L 308.064541 173.476453 
L 308.419987 173.476453 
L 308.775434 173.476453 
L 309.13088 173.424555 
L 309.486327 173.023925 
L 309.841773 172.625686 
L 310.197219 172.625686 
L 310.552666 172.625686 
L 310.908112 172.521586 
L 311.263558 172.127565 
L 311.619005 171.735846 
L 311.974451 171.735846 
L 312.329897 171.735846 
L 312.685344 171.636163 
L 313.04079 171.636163 
L 313.396236 171.392931 
L 313.751683 171.007281 
L 314.107129 171.007281 
L 314.462576 171.007281 
L 314.818022 171.007281 
L 315.173468 171.007281 
L 315.528915 171.007281 
L 315.884361 170.816007 
L 316.239807 170.816007 
L 316.595254 170.816007 
L 316.9507 170.816007 
L 317.306146 170.816007 
L 317.661593 170.816007 
L 318.017039 170.816007 
L 318.372485 170.816007 
L 318.727932 170.816007 
L 319.083378 170.816007 
L 319.438824 170.816007 
L 319.794271 170.816007 
L 320.149717 170.816007 
L 320.505164 170.816007 
L 320.86061 170.816007 
L 321.216056 170.816007 
L 321.571503 170.816007 
L 321.926949 170.816007 
L 322.282395 170.816007 
L 322.637842 170.816007 
L 322.993288 170.816007 
L 323.348734 170.816007 
L 323.704181 170.816007 
L 324.059627 170.816007 
L 324.415073 170.816007 
L 324.77052 170.816007 
L 325.125966 170.816007 
L 325.481413 170.816007 
L 325.836859 170.816007 
L 326.192305 170.816007 
L 326.547752 170.816007 
L 326.903198 170.816007 
L 327.258644 170.816007 
L 327.614091 170.816007 
L 327.969537 170.816007 
L 328.324983 170.816007 
L 328.68043 170.816007 
L 329.035876 170.816007 
L 329.391322 170.816007 
L 329.746769 170.816007 
L 330.102215 170.816007 
L 330.457661 170.816007 
L 330.813108 170.816007 
L 331.168554 170.816007 
L 331.524001 170.816007 
L 331.879447 170.816007 
L 332.234893 170.816007 
L 332.59034 170.816007 
L 332.945786 170.816007 
L 333.301232 170.816007 
L 333.656679 170.816007 
L 334.012125 170.816007 
L 334.367571 170.816007 
L 334.723018 170.816007 
L 335.078464 170.676492 
L 335.43391 170.676492 
L 335.789357 170.676492 
L 336.144803 170.586788 
L 336.50025 170.586788 
L 336.855696 170.586788 
L 337.211142 170.497673 
L 337.566589 170.143068 
L 337.922035 170.143068 
L 338.277481 169.923225 
L 338.632928 169.923225 
L 338.988374 169.923225 
L 339.34382 169.923225 
L 339.699267 169.923225 
L 340.054713 169.923225 
L 340.410159 169.923225 
L 340.765606 169.923225 
L 341.121052 169.923225 
L 341.476499 169.923225 
L 341.831945 169.923225 
L 342.187391 169.923225 
L 342.542838 169.923225 
L 342.898284 169.923225 
L 343.25373 169.923225 
L 343.609177 169.923225 
L 343.964623 169.923225 
L 344.320069 169.759498 
L 344.675516 169.759498 
L 345.030962 169.759498 
L 345.386408 169.759498 
L 345.741855 169.759498 
L 346.097301 169.759498 
L 346.452747 169.759498 
L 346.808194 169.759498 
L 347.16364 169.759498 
L 347.519087 169.759498 
L 347.874533 169.759498 
L 348.229979 169.759498 
L 348.585426 169.759498 
L 348.940872 169.759498 
L 349.296318 169.759498 
L 349.651765 169.759498 
L 350.007211 169.759498 
L 350.362657 169.759498 
L 350.718104 169.759498 
L 351.07355 169.759498 
L 351.428996 169.759498 
L 351.784443 169.759498 
L 352.139889 169.759498 
L 352.495336 169.759498 
L 352.850782 169.759498 
L 353.206228 169.759498 
L 353.561675 169.759498 
L 353.917121 169.759498 
L 354.272567 169.759498 
L 354.628014 169.759498 
L 354.98346 169.759498 
L 355.338906 169.759498 
L 355.694353 169.759498 
L 356.049799 169.759498 
L 356.405245 169.759498 
L 356.760692 169.759498 
L 357.116138 169.759498 
L 357.471585 169.759498 
L 357.827031 169.759498 
L 358.182477 169.759498 
L 358.537924 169.759498 
L 358.89337 169.759498 
L 359.248816 169.759498 
L 359.604263 169.759498 
L 359.959709 169.759498 
L 360.315155 169.759498 
L 360.670602 169.759498 
L 361.026048 169.759498 
L 361.381494 169.759498 
L 361.736941 169.759498 
L 362.092387 169.759498 
L 362.447833 169.759498 
L 362.80328 169.759498 
L 363.158726 169.759498 
L 363.514173 169.759498 
L 363.869619 169.759498 
L 364.225065 169.759498 
L 364.580512 169.759498 
L 364.935958 169.759498 
L 365.291404 169.759498 
L 365.646851 169.759498 
L 366.002297 169.759498 
L 366.357743 169.759498 
L 366.71319 169.759498 
L 367.068636 169.759498 
L 367.424082 169.759498 
L 367.779529 169.759498 
L 368.134975 169.759498 
L 368.490422 169.759498 
L 368.845868 169.759498 
L 369.201314 169.759498 
L 369.556761 169.759498 
L 369.912207 169.759498 
L 370.267653 169.759498 
L 370.6231 169.759498 
L 370.978546 169.759498 
L 371.333992 169.759498 
L 371.689439 169.759498 
L 372.044885 169.759498 
L 372.400331 169.759498 
L 372.755778 169.759498 
L 373.111224 169.759498 
L 373.466671 169.759498 
L 373.822117 169.759498 
L 374.177563 169.759498 
L 374.53301 169.759498 
L 374.888456 169.759498 
L 375.243902 169.759498 
L 375.599349 169.759498 
L 375.954795 169.759498 
L 376.310241 169.759498 
L 376.665688 169.759498 
L 377.021134 169.759498 
L 377.37658 169.759498 
L 377.732027 169.759498 
L 378.087473 169.759498 
L 378.442919 169.759498 
L 378.798366 169.759498 
L 379.153812 169.759498 
L 379.509259 169.759498 
L 379.864705 169.759498 
L 380.220151 169.759498 
L 380.575598 169.759498 
L 380.931044 169.759498 
L 381.28649 169.759498 
L 381.641937 169.759498 
L 381.997383 169.759498 
L 382.352829 169.759498 
L 382.708276 169.759498 
L 383.063722 169.759498 
L 383.419168 169.759498 
L 383.774615 169.759498 
L 384.130061 169.759498 
L 384.485508 169.759498 
L 384.840954 169.759498 
L 385.1964 169.759498 
L 385.551847 169.759498 
L 385.907293 169.759498 
L 386.262739 169.759498 
L 386.618186 169.759498 
L 386.973632 169.759498 
L 387.329078 169.759498 
L 387.684525 169.759498 
L 388.039971 169.759498 
L 388.395417 169.759498 
L 388.750864 169.759498 
L 389.10631 169.759498 
L 389.461757 169.759498 
L 389.817203 169.759498 
L 390.172649 169.759498 
L 390.528096 169.759498 
L 390.883542 169.759498 
L 391.238988 169.759498 
L 391.594435 169.759498 
L 391.949881 169.759498 
L 392.305327 169.759498 
L 392.660774 169.759498 
L 393.01622 169.759498 
L 393.371666 169.759498 
L 393.727113 169.759498 
L 394.082559 169.759498 
L 394.438005 169.759498 
L 394.793452 169.759498 
L 395.148898 169.759498 
L 395.504345 169.759498 
L 395.859791 169.759498 
L 396.215237 169.759498 
L 396.570684 169.759498 
L 396.92613 169.759498 
L 397.281576 169.759498 
L 397.637023 169.759498 
L 397.992469 169.759498 
L 398.347915 169.759498 
L 398.703362 169.759498 
L 399.058808 169.759498 
L 399.414254 169.759498 
L 399.769701 169.759498 
L 400.125147 169.759498 
L 400.480594 169.759498 
L 400.83604 169.759498 
L 401.191486 169.759498 
L 401.546933 169.759498 
L 401.902379 169.759498 
L 402.257825 169.759498 
L 402.613272 169.759498 
L 402.968718 169.759498 
L 403.324164 169.759498 
L 403.679611 169.759498 
L 404.035057 169.759498 
L 404.390503 169.759498 
L 404.74595 169.759498 
L 405.101396 169.759498 
L 405.456842 169.759498 
L 405.812289 169.759498 
L 406.167735 169.759498 
L 406.523182 169.759498 
L 406.878628 169.759498 
L 407.234074 169.759498 
L 407.589521 169.759498 
L 407.944967 169.759498 
L 408.300413 169.759498 
L 408.65586 169.759498 
L 409.011306 169.759498 
L 409.366752 169.759498 
L 409.722199 169.759498 
L 410.077645 169.759498 
L 410.433091 169.759498 
L 410.788538 169.759498 
L 411.143984 169.759498 
L 411.499431 169.759498 
L 411.854877 169.759498 
L 412.210323 169.759498 
L 412.56577 169.759498 
L 412.921216 169.759498 
L 413.276662 169.759498 
L 413.632109 169.759498 
L 413.987555 169.759498 
L 414.343001 169.759498 
L 414.698448 169.759498 
L 415.053894 169.759498 
L 415.40934 169.759498 
L 415.764787 169.759498 
L 416.120233 169.759498 
L 416.47568 169.759498 
L 416.831126 169.759498 
L 417.186572 169.759498 
L 417.542019 169.759498 
L 417.897465 169.759498 
L 418.252911 169.759498 
L 418.608358 169.759498 
L 418.963804 169.759498 
L 419.31925 169.759498 
L 419.674697 169.759498 
L 420.030143 169.759498 
L 420.385589 169.759498 
L 420.741036 169.759498 
L 421.096482 169.759498 
L 421.451928 169.759498 
L 421.807375 169.759498 
L 422.162821 169.759498 
L 422.518268 169.759498 
L 422.873714 169.759498 
L 423.22916 169.759498 
L 423.584607 169.759498 
L 423.940053 169.759498 
L 424.295499 169.759498 
L 424.650946 169.759498 
L 425.006392 169.759498 
L 425.006392 128.681024 
L 425.006392 128.681024 
L 424.650946 128.681024 
L 424.295499 128.681024 
L 423.940053 128.681024 
L 423.584607 128.681024 
L 423.22916 128.681024 
L 422.873714 128.681024 
L 422.518268 128.681024 
L 422.162821 128.681024 
L 421.807375 128.681024 
L 421.451928 128.681024 
L 421.096482 128.681024 
L 420.741036 128.681024 
L 420.385589 128.524366 
L 420.030143 128.367423 
L 419.674697 128.24713 
L 419.31925 128.24713 
L 418.963804 128.24713 
L 418.608358 128.24713 
L 418.252911 128.08915 
L 417.897465 127.930879 
L 417.542019 127.830326 
L 417.186572 127.830326 
L 416.831126 127.830326 
L 416.47568 127.830326 
L 416.120233 127.830326 
L 415.764787 127.830326 
L 415.40934 127.830326 
L 415.053894 127.830326 
L 414.698448 127.830326 
L 414.343001 127.830326 
L 413.987555 127.830326 
L 413.632109 127.830326 
L 413.276662 127.830326 
L 412.921216 127.830326 
L 412.56577 127.830326 
L 412.210323 127.830326 
L 411.854877 127.830326 
L 411.499431 127.830326 
L 411.143984 127.830326 
L 410.788538 127.830326 
L 410.433091 127.668301 
L 410.077645 127.505971 
L 409.722199 127.343336 
L 409.366752 127.180394 
L 409.011306 127.017145 
L 408.65586 126.853587 
L 408.300413 126.689719 
L 407.944967 126.525541 
L 407.589521 126.361052 
L 407.234074 126.196251 
L 406.878628 126.094932 
L 406.523182 126.094932 
L 406.167735 126.094932 
L 405.812289 126.094932 
L 405.456842 126.094932 
L 405.101396 126.094932 
L 404.74595 126.094932 
L 404.390503 126.042774 
L 404.035057 126.042774 
L 403.679611 126.042774 
L 403.324164 126.042774 
L 402.968718 126.042774 
L 402.613272 126.042774 
L 402.257825 126.042774 
L 401.902379 126.042774 
L 401.546933 126.042774 
L 401.191486 126.042774 
L 400.83604 126.042774 
L 400.480594 126.042774 
L 400.125147 126.042774 
L 399.769701 126.042774 
L 399.414254 126.042774 
L 399.058808 126.042774 
L 398.703362 126.042774 
L 398.347915 126.042774 
L 397.992469 126.042774 
L 397.637023 126.042774 
L 397.281576 126.042774 
L 396.92613 126.042774 
L 396.570684 126.042774 
L 396.215237 126.042774 
L 395.859791 126.042774 
L 395.504345 126.042774 
L 395.148898 126.042774 
L 394.793452 126.042774 
L 394.438005 126.042774 
L 394.082559 126.042774 
L 393.727113 126.042774 
L 393.371666 126.042774 
L 393.01622 126.042774 
L 392.660774 126.042774 
L 392.305327 126.042774 
L 391.949881 126.042774 
L 391.594435 126.042774 
L 391.238988 126.042774 
L 390.883542 126.042774 
L 390.528096 126.042774 
L 390.172649 126.042774 
L 389.817203 126.042774 
L 389.461757 126.042774 
L 389.10631 126.042774 
L 388.750864 126.042774 
L 388.395417 126.042774 
L 388.039971 126.042774 
L 387.684525 126.042774 
L 387.329078 126.042774 
L 386.973632 126.042774 
L 386.618186 126.042774 
L 386.262739 126.042774 
L 385.907293 126.042774 
L 385.551847 126.042774 
L 385.1964 126.042774 
L 384.840954 126.042774 
L 384.485508 126.042774 
L 384.130061 126.042774 
L 383.774615 126.042774 
L 383.419168 126.042774 
L 383.063722 126.042774 
L 382.708276 126.042774 
L 382.352829 126.042774 
L 381.997383 126.042774 
L 381.641937 126.042774 
L 381.28649 126.042774 
L 380.931044 126.042774 
L 380.575598 126.042774 
L 380.220151 126.042774 
L 379.864705 126.042774 
L 379.509259 126.042774 
L 379.153812 126.042774 
L 378.798366 126.042774 
L 378.442919 126.042774 
L 378.087473 126.042774 
L 377.732027 126.042774 
L 377.37658 126.042774 
L 377.021134 126.042774 
L 376.665688 126.042774 
L 376.310241 126.042774 
L 375.954795 126.042774 
L 375.599349 126.042774 
L 375.243902 126.042774 
L 374.888456 126.042774 
L 374.53301 126.042774 
L 374.177563 126.042774 
L 373.822117 126.042774 
L 373.466671 126.042774 
L 373.111224 126.042774 
L 372.755778 126.042774 
L 372.400331 126.042774 
L 372.044885 126.042774 
L 371.689439 126.042774 
L 371.333992 126.042774 
L 370.978546 126.042774 
L 370.6231 126.042774 
L 370.267653 126.042774 
L 369.912207 126.042774 
L 369.556761 126.042774 
L 369.201314 126.042774 
L 368.845868 126.042774 
L 368.490422 126.042774 
L 368.134975 126.042774 
L 367.779529 126.042774 
L 367.424082 126.042774 
L 367.068636 126.042774 
L 366.71319 126.042774 
L 366.357743 126.042774 
L 366.002297 126.042774 
L 365.646851 126.042774 
L 365.291404 126.042774 
L 364.935958 126.042774 
L 364.580512 126.042774 
L 364.225065 126.042774 
L 363.869619 126.042774 
L 363.514173 126.042774 
L 363.158726 126.042774 
L 362.80328 126.042774 
L 362.447833 126.042774 
L 362.092387 126.042774 
L 361.736941 126.042774 
L 361.381494 126.042774 
L 361.026048 126.042774 
L 360.670602 126.042774 
L 360.315155 126.042774 
L 359.959709 126.042774 
L 359.604263 126.042774 
L 359.248816 126.042774 
L 358.89337 126.042774 
L 358.537924 126.042774 
L 358.182477 126.042774 
L 357.827031 126.042774 
L 357.471585 126.042774 
L 357.116138 126.042774 
L 356.760692 126.042774 
L 356.405245 126.042774 
L 356.049799 126.042774 
L 355.694353 126.042774 
L 355.338906 126.042774 
L 354.98346 126.042774 
L 354.628014 126.042774 
L 354.272567 126.042774 
L 353.917121 126.042774 
L 353.561675 126.042774 
L 353.206228 126.042774 
L 352.850782 126.042774 
L 352.495336 126.042774 
L 352.139889 126.042774 
L 351.784443 126.042774 
L 351.428996 126.042774 
L 351.07355 126.042774 
L 350.718104 126.042774 
L 350.362657 126.042774 
L 350.007211 126.042774 
L 349.651765 126.042774 
L 349.296318 126.042774 
L 348.940872 126.042774 
L 348.585426 126.042774 
L 348.229979 126.042774 
L 347.874533 126.042774 
L 347.519087 126.042774 
L 347.16364 126.042774 
L 346.808194 126.042774 
L 346.452747 126.042774 
L 346.097301 126.042774 
L 345.741855 126.042774 
L 345.386408 126.042774 
L 345.030962 126.042774 
L 344.675516 126.042774 
L 344.320069 126.042774 
L 343.964623 126.042774 
L 343.609177 126.042774 
L 343.25373 126.042774 
L 342.898284 126.042774 
L 342.542838 126.042774 
L 342.187391 126.042774 
L 341.831945 126.042774 
L 341.476499 126.042774 
L 341.121052 126.042774 
L 340.765606 126.042774 
L 340.410159 126.042774 
L 340.054713 126.042774 
L 339.699267 126.042774 
L 339.34382 126.042774 
L 338.988374 126.042774 
L 338.632928 126.042774 
L 338.277481 126.042774 
L 337.922035 126.042774 
L 337.566589 126.042774 
L 337.211142 126.042774 
L 336.855696 126.042774 
L 336.50025 126.042774 
L 336.144803 126.042774 
L 335.789357 126.042774 
L 335.43391 126.042774 
L 335.078464 126.042774 
L 334.723018 126.042774 
L 334.367571 126.042774 
L 334.012125 126.042774 
L 333.656679 126.042774 
L 333.301232 126.042774 
L 332.945786 126.042774 
L 332.59034 126.042774 
L 332.234893 126.042774 
L 331.879447 126.042774 
L 331.524001 126.042774 
L 331.168554 126.042774 
L 330.813108 126.042774 
L 330.457661 126.042774 
L 330.102215 126.042774 
L 329.746769 126.042774 
L 329.391322 126.042774 
L 329.035876 126.042774 
L 328.68043 126.042774 
L 328.324983 126.042774 
L 327.969537 126.042774 
L 327.614091 126.042774 
L 327.258644 126.042774 
L 326.903198 126.042774 
L 326.547752 126.042774 
L 326.192305 126.042774 
L 325.836859 126.042774 
L 325.481413 126.042774 
L 325.125966 126.042774 
L 324.77052 126.042774 
L 324.415073 126.042774 
L 324.059627 126.042774 
L 323.704181 126.042774 
L 323.348734 126.042774 
L 322.993288 126.042774 
L 322.637842 126.042774 
L 322.282395 126.042774 
L 321.926949 126.042774 
L 321.571503 126.042774 
L 321.216056 126.042774 
L 320.86061 126.042774 
L 320.505164 126.042774 
L 320.149717 126.042774 
L 319.794271 126.042774 
L 319.438824 126.042774 
L 319.083378 126.042774 
L 318.727932 126.042774 
L 318.372485 126.042774 
L 318.017039 126.042774 
L 317.661593 126.042774 
L 317.306146 126.042774 
L 316.9507 126.042774 
L 316.595254 126.042774 
L 316.239807 126.042774 
L 315.884361 126.042774 
L 315.528915 126.042774 
L 315.173468 126.042774 
L 314.818022 126.042774 
L 314.462576 126.042774 
L 314.107129 126.042774 
L 313.751683 126.042774 
L 313.396236 126.042774 
L 313.04079 126.042774 
L 312.685344 126.042774 
L 312.329897 126.042774 
L 311.974451 126.042774 
L 311.619005 126.042774 
L 311.263558 126.042774 
L 310.908112 126.042774 
L 310.552666 126.042774 
L 310.197219 126.042774 
L 309.841773 126.042774 
L 309.486327 126.042774 
L 309.13088 126.042774 
L 308.775434 126.042774 
L 308.419987 126.042774 
L 308.064541 126.042774 
L 307.709095 126.042774 
L 307.353648 126.042774 
L 306.998202 126.042774 
L 306.642756 126.042774 
L 306.287309 126.042774 
L 305.931863 126.042774 
L 305.576417 126.042774 
L 305.22097 126.042774 
L 304.865524 126.042774 
L 304.510078 126.042774 
L 304.154631 126.042774 
L 303.799185 126.042774 
L 303.443738 126.042774 
L 303.088292 126.042774 
L 302.732846 126.042774 
L 302.377399 126.042774 
L 302.021953 126.042774 
L 301.666507 126.042774 
L 301.31106 126.042774 
L 300.955614 126.042774 
L 300.600168 126.042774 
L 300.244721 126.042774 
L 299.889275 126.042774 
L 299.533829 126.042774 
L 299.178382 126.042774 
L 298.822936 126.042774 
L 298.46749 126.042774 
L 298.112043 126.042774 
L 297.756597 126.042774 
L 297.40115 126.042774 
L 297.045704 126.042774 
L 296.690258 126.042774 
L 296.334811 126.042774 
L 295.979365 126.042774 
L 295.623919 126.042774 
L 295.268472 126.042774 
L 294.913026 126.042774 
L 294.55758 126.042774 
L 294.202133 126.042774 
L 293.846687 126.042774 
L 293.491241 126.042774 
L 293.135794 126.042774 
L 292.780348 126.042774 
L 292.424901 126.042774 
L 292.069455 126.042774 
L 291.714009 126.042774 
L 291.358562 126.042774 
L 291.003116 126.042774 
L 290.64767 126.042774 
L 290.292223 126.042774 
L 289.936777 126.042774 
L 289.581331 126.042774 
L 289.225884 126.042774 
L 288.870438 126.042774 
L 288.514992 126.042774 
L 288.159545 126.042774 
L 287.804099 126.042774 
L 287.448652 126.042774 
L 287.093206 126.042774 
L 286.73776 126.042774 
L 286.382313 126.042774 
L 286.026867 126.042774 
L 285.671421 126.042774 
L 285.315974 126.042774 
L 284.960528 126.042774 
L 284.605082 126.042774 
L 284.249635 126.042774 
L 283.894189 126.042774 
L 283.538743 126.042774 
L 283.183296 126.042774 
L 282.82785 126.042774 
L 282.472404 126.042774 
L 282.116957 126.042774 
L 281.761511 126.042774 
L 281.406064 126.042774 
L 281.050618 126.042774 
L 280.695172 126.042774 
L 280.339725 126.042774 
L 279.984279 126.042774 
L 279.628833 126.042774 
L 279.273386 126.042774 
L 278.91794 126.042774 
L 278.562494 126.042774 
L 278.207047 126.042774 
L 277.851601 126.042774 
L 277.496155 126.042774 
L 277.140708 126.042774 
L 276.785262 126.042774 
L 276.429815 126.042774 
L 276.074369 126.042774 
L 275.718923 126.042774 
L 275.363476 126.042774 
L 275.00803 126.042774 
L 274.652584 126.042774 
L 274.297137 126.042774 
L 273.941691 126.042774 
L 273.586245 126.042774 
L 273.230798 126.042774 
L 272.875352 126.042774 
L 272.519906 126.042774 
L 272.164459 126.042774 
L 271.809013 126.042774 
L 271.453566 126.042774 
L 271.09812 126.042774 
L 270.742674 126.042774 
L 270.387227 126.042774 
L 270.031781 126.042774 
L 269.676335 126.042774 
L 269.320888 126.042774 
L 268.965442 126.042774 
L 268.609996 126.042774 
L 268.254549 126.042774 
L 267.899103 126.042774 
L 267.543657 126.042774 
L 267.18821 126.042774 
L 266.832764 126.042774 
L 266.477318 126.042774 
L 266.121871 126.042774 
L 265.766425 126.042774 
L 265.410978 126.042774 
L 265.055532 126.042774 
L 264.700086 126.042774 
L 264.344639 126.042774 
L 263.989193 126.042774 
L 263.633747 126.042774 
L 263.2783 126.042774 
L 262.922854 126.042774 
L 262.567408 126.042774 
L 262.211961 126.042774 
L 261.856515 126.042774 
L 261.501069 126.042774 
L 261.145622 126.042774 
L 260.790176 126.042774 
L 260.434729 126.042774 
L 260.079283 126.042774 
L 259.723837 126.042774 
L 259.36839 126.042774 
L 259.012944 126.042774 
L 258.657498 126.042774 
L 258.302051 126.042774 
L 257.946605 126.042774 
L 257.591159 126.042774 
L 257.235712 126.042774 
L 256.880266 126.042774 
L 256.52482 126.042774 
L 256.169373 126.042774 
L 255.813927 126.042774 
L 255.45848 126.042774 
L 255.103034 126.042774 
L 254.747588 126.042774 
L 254.392141 126.042774 
L 254.036695 126.042774 
L 253.681249 126.042774 
L 253.325802 126.042774 
L 252.970356 126.042774 
L 252.61491 126.042774 
L 252.259463 126.042774 
L 251.904017 126.042774 
L 251.548571 126.042774 
L 251.193124 126.042774 
L 250.837678 126.042774 
L 250.482232 126.042774 
L 250.126785 126.042774 
L 249.771339 126.042774 
L 249.415892 126.042774 
L 249.060446 126.042774 
L 248.705 126.042774 
L 248.349553 126.042774 
L 247.994107 126.042774 
L 247.638661 126.042774 
L 247.283214 126.042774 
L 246.927768 126.042774 
L 246.572322 126.042774 
L 246.216875 126.042774 
L 245.861429 126.042774 
L 245.505983 126.042774 
L 245.150536 126.042774 
L 244.79509 126.042774 
L 244.439643 126.042774 
L 244.084197 126.042774 
L 243.728751 126.042774 
L 243.373304 126.042774 
L 243.017858 126.042774 
L 242.662412 126.042774 
L 242.306965 126.042774 
L 241.951519 126.042774 
L 241.596073 126.042774 
L 241.240626 126.042774 
L 240.88518 126.042774 
L 240.529734 126.042774 
L 240.174287 126.042774 
L 239.818841 126.042774 
L 239.463395 126.042774 
L 239.107948 126.042774 
L 238.752502 126.042774 
L 238.397055 126.042774 
L 238.041609 126.042774 
L 237.686163 126.042774 
L 237.330716 126.042774 
L 236.97527 126.042774 
L 236.619824 126.042774 
L 236.264377 126.042774 
L 235.908931 126.042774 
L 235.553485 126.042774 
L 235.198038 126.042774 
L 234.842592 126.042774 
L 234.487146 126.042774 
L 234.131699 126.042774 
L 233.776253 126.042774 
L 233.420806 126.042774 
L 233.06536 126.042774 
L 232.709914 126.042774 
L 232.354467 126.042774 
L 231.999021 126.042774 
L 231.643575 126.042774 
L 231.288128 126.042774 
L 230.932682 126.042774 
L 230.577236 126.042774 
L 230.221789 126.042774 
L 229.866343 126.042774 
L 229.510897 126.042774 
L 229.15545 126.042774 
L 228.800004 126.042774 
L 228.444557 126.042774 
L 228.089111 126.042774 
L 227.733665 126.042774 
L 227.378218 126.042774 
L 227.022772 126.042774 
L 226.667326 126.042774 
L 226.311879 126.042774 
L 225.956433 126.042774 
L 225.600987 126.042774 
L 225.24554 126.042774 
L 224.890094 126.042774 
L 224.534648 126.042774 
L 224.179201 126.042774 
L 223.823755 126.042774 
L 223.468309 126.042774 
L 223.112862 126.042774 
L 222.757416 126.042774 
L 222.401969 126.042774 
L 222.046523 126.042774 
L 221.691077 126.042774 
L 221.33563 126.042774 
L 220.980184 126.042774 
L 220.624738 126.042774 
L 220.269291 126.042774 
L 219.913845 126.042774 
L 219.558399 126.042774 
L 219.202952 126.042774 
L 218.847506 126.042774 
L 218.49206 126.042774 
L 218.136613 126.042774 
L 217.781167 126.042774 
L 217.42572 126.042774 
L 217.070274 126.042774 
L 216.714828 126.042774 
L 216.359381 126.042774 
L 216.003935 126.042774 
L 215.648489 126.042774 
L 215.293042 126.042774 
L 214.937596 126.042774 
L 214.58215 126.042774 
L 214.226703 126.042774 
L 213.871257 126.042774 
L 213.515811 126.042774 
L 213.160364 126.042774 
L 212.804918 126.042774 
L 212.449471 126.042774 
L 212.094025 126.042774 
L 211.738579 126.042774 
L 211.383132 126.042774 
L 211.027686 126.042774 
L 210.67224 126.042774 
L 210.316793 126.042774 
L 209.961347 126.042774 
L 209.605901 126.042774 
L 209.250454 126.042774 
L 208.895008 126.042774 
L 208.539562 126.042774 
L 208.184115 126.042774 
L 207.828669 126.042774 
L 207.473223 126.042774 
L 207.117776 126.042774 
L 206.76233 126.042774 
L 206.406883 126.042774 
L 206.051437 126.042774 
L 205.695991 126.042774 
L 205.340544 126.042774 
L 204.985098 126.042774 
L 204.629652 126.042774 
L 204.274205 126.042774 
L 203.918759 126.042774 
L 203.563313 126.042774 
L 203.207866 126.042774 
L 202.85242 126.042774 
L 202.496974 126.042774 
L 202.141527 126.042774 
L 201.786081 126.042774 
L 201.430634 126.042774 
L 201.075188 126.042774 
L 200.719742 126.042774 
L 200.364295 126.042774 
L 200.008849 126.042774 
L 199.653403 126.042774 
L 199.297956 126.042774 
L 198.94251 126.042774 
L 198.587064 126.042774 
L 198.231617 126.042774 
L 197.876171 126.042774 
L 197.520725 126.042774 
L 197.165278 126.042774 
L 196.809832 126.042774 
L 196.454385 126.042774 
L 196.098939 126.042774 
L 195.743493 126.042774 
L 195.388046 126.042774 
L 195.0326 126.042774 
L 194.677154 126.042774 
L 194.321707 126.042774 
L 193.966261 126.042774 
L 193.610815 126.042774 
L 193.255368 126.042774 
L 192.899922 126.042774 
L 192.544476 126.042774 
L 192.189029 126.042774 
L 191.833583 126.042774 
L 191.478137 126.042774 
L 191.12269 126.042774 
L 190.767244 126.042774 
L 190.411797 126.042774 
L 190.056351 126.042774 
L 189.700905 126.042774 
L 189.345458 126.042774 
L 188.990012 126.042774 
L 188.634566 126.042774 
L 188.279119 126.042774 
L 187.923673 126.042774 
L 187.568227 126.042774 
L 187.21278 126.042774 
L 186.857334 126.042774 
L 186.501888 126.042774 
L 186.146441 126.042774 
L 185.790995 126.042774 
L 185.435548 126.042774 
L 185.080102 126.042774 
L 184.724656 126.042774 
L 184.369209 126.042774 
L 184.013763 126.042774 
L 183.658317 126.042774 
L 183.30287 126.042774 
L 182.947424 126.042774 
L 182.591978 126.042774 
L 182.236531 126.042774 
L 181.881085 126.042774 
L 181.525639 126.042774 
L 181.170192 126.042774 
L 180.814746 126.042774 
L 180.459299 126.042774 
L 180.103853 126.042774 
L 179.748407 126.042774 
L 179.39296 126.042774 
L 179.037514 126.042774 
L 178.682068 126.042774 
L 178.326621 126.042774 
L 177.971175 126.042774 
L 177.615729 126.042774 
L 177.260282 126.042774 
L 176.904836 126.042774 
L 176.54939 126.042774 
L 176.193943 126.042774 
L 175.838497 126.042774 
L 175.483051 126.042774 
L 175.127604 126.042774 
L 174.772158 126.042774 
L 174.416711 126.042774 
L 174.061265 126.042774 
L 173.705819 126.042774 
L 173.350372 126.042774 
L 172.994926 126.042774 
L 172.63948 126.042774 
L 172.284033 126.042774 
L 171.928587 126.042774 
L 171.573141 126.042774 
L 171.217694 126.042774 
L 170.862248 126.042774 
L 170.506802 126.042774 
L 170.151355 126.042774 
L 169.795909 126.042774 
L 169.440462 126.042774 
L 169.085016 126.042774 
L 168.72957 126.042774 
L 168.374123 126.042774 
L 168.018677 126.042774 
L 167.663231 126.042774 
L 167.307784 126.042774 
L 166.952338 126.042774 
L 166.596892 126.042774 
L 166.241445 126.042774 
L 165.885999 126.042774 
L 165.530553 126.042774 
L 165.175106 126.042774 
L 164.81966 126.042774 
L 164.464214 126.042774 
L 164.108767 126.042774 
L 163.753321 126.042774 
L 163.397874 126.042774 
L 163.042428 126.042774 
L 162.686982 126.042774 
L 162.331535 126.042774 
L 161.976089 126.042774 
L 161.620643 126.042774 
L 161.265196 126.042774 
L 160.90975 126.042774 
L 160.554304 126.042774 
L 160.198857 126.042774 
L 159.843411 126.042774 
L 159.487965 126.042774 
L 159.132518 126.042774 
L 158.777072 126.042774 
L 158.421625 126.042774 
L 158.066179 126.042774 
L 157.710733 126.042774 
L 157.355286 126.042774 
L 156.99984 126.042774 
L 156.644394 126.042774 
L 156.288947 126.042774 
L 155.933501 126.042774 
L 155.578055 126.042774 
L 155.222608 126.042774 
L 154.867162 126.042774 
L 154.511716 126.042774 
L 154.156269 126.042774 
L 153.800823 126.042774 
L 153.445376 126.042774 
L 153.08993 126.042774 
L 152.734484 126.042774 
L 152.379037 126.042774 
L 152.023591 126.042774 
L 151.668145 126.042774 
L 151.312698 126.042774 
L 150.957252 126.042774 
L 150.601806 126.042774 
L 150.246359 126.042774 
L 149.890913 126.042774 
L 149.535467 126.042774 
L 149.18002 126.042774 
L 148.824574 126.042774 
L 148.469128 126.042774 
L 148.113681 126.042774 
L 147.758235 126.042774 
L 147.402788 126.042774 
L 147.047342 126.042774 
L 146.691896 126.042774 
L 146.336449 126.042774 
L 145.981003 126.042774 
L 145.625557 126.042774 
L 145.27011 126.042774 
L 144.914664 126.042774 
L 144.559218 126.042774 
L 144.203771 126.042774 
L 143.848325 126.042774 
L 143.492879 126.042774 
L 143.137432 126.042774 
L 142.781986 126.042774 
L 142.426539 126.042774 
L 142.071093 126.042774 
L 141.715647 126.042774 
L 141.3602 126.042774 
L 141.004754 126.042774 
L 140.649308 126.042774 
L 140.293861 126.042774 
L 139.938415 126.042774 
L 139.582969 126.042774 
L 139.227522 126.042774 
L 138.872076 126.042774 
L 138.51663 126.042774 
L 138.161183 126.042774 
L 137.805737 126.042774 
L 137.45029 126.042774 
L 137.094844 126.042774 
L 136.739398 126.042774 
L 136.383951 126.042774 
L 136.028505 126.042774 
L 135.673059 126.042774 
L 135.317612 126.042774 
L 134.962166 126.042774 
L 134.60672 126.042774 
L 134.251273 126.042774 
L 133.895827 126.042774 
L 133.540381 126.042774 
L 133.184934 126.042774 
L 132.829488 126.042774 
L 132.474042 126.042774 
L 132.118595 126.042774 
L 131.763149 126.042774 
L 131.407702 126.042774 
L 131.052256 126.042774 
L 130.69681 126.042774 
L 130.341363 126.042774 
L 129.985917 126.042774 
L 129.630471 126.042774 
L 129.275024 126.042774 
L 128.919578 126.042774 
L 128.564132 126.042774 
L 128.208685 126.042774 
L 127.853239 126.042774 
L 127.497793 126.042774 
L 127.142346 126.042774 
L 126.7869 126.042774 
L 126.431453 126.042774 
L 126.076007 126.042774 
L 125.720561 126.042774 
L 125.365114 126.042774 
L 125.009668 126.042774 
L 124.654222 126.042774 
L 124.298775 126.042774 
L 123.943329 126.042774 
L 123.587883 126.042774 
L 123.232436 126.042774 
L 122.87699 126.042774 
L 122.521544 126.042774 
L 122.166097 126.042774 
L 121.810651 126.042774 
L 121.455204 126.042774 
L 121.099758 126.042774 
L 120.744312 126.042774 
L 120.388865 126.042774 
L 120.033419 126.042774 
L 119.677973 126.042774 
L 119.322526 126.042774 
L 118.96708 126.042774 
L 118.611634 126.042774 
L 118.256187 126.042774 
L 117.900741 126.042774 
L 117.545295 126.042774 
L 117.189848 126.042774 
L 116.834402 126.042774 
L 116.478956 126.042774 
L 116.123509 126.042774 
L 115.768063 126.042774 
L 115.412616 126.042774 
L 115.05717 126.042774 
L 114.701724 126.042774 
L 114.346277 126.042774 
L 113.990831 126.042774 
L 113.635385 126.042774 
L 113.279938 126.042774 
L 112.924492 126.042774 
L 112.569046 126.042774 
L 112.213599 126.042774 
L 111.858153 126.042774 
L 111.502707 126.042774 
L 111.14726 126.042774 
L 110.791814 126.042774 
L 110.436367 126.042774 
L 110.080921 126.042774 
L 109.725475 126.042774 
L 109.370028 126.042774 
L 109.014582 126.042774 
L 108.659136 126.042774 
L 108.303689 126.042774 
L 107.948243 126.042774 
L 107.592797 126.042774 
L 107.23735 126.042774 
L 106.881904 126.042774 
L 106.526458 126.042774 
L 106.171011 126.042774 
L 105.815565 126.042774 
L 105.460118 126.042774 
L 105.104672 126.042774 
L 104.749226 126.042774 
L 104.393779 126.042774 
L 104.038333 126.042774 
L 103.682887 126.042774 
L 103.32744 126.042774 
L 102.971994 126.042774 
L 102.616548 126.042774 
L 102.261101 126.042774 
L 101.905655 126.042774 
L 101.550209 126.042774 
L 101.194762 126.042774 
L 100.839316 126.042774 
L 100.48387 126.042774 
L 100.128423 126.042774 
L 99.772977 126.042774 
L 99.41753 126.042774 
L 99.062084 126.042774 
L 98.706638 126.042774 
L 98.351191 126.042774 
L 97.995745 126.042774 
L 97.640299 126.042774 
L 97.284852 126.042774 
L 96.929406 126.042774 
L 96.57396 126.042774 
L 96.218513 126.042774 
L 95.863067 126.042774 
L 95.507621 126.042774 
L 95.152174 126.042774 
L 94.796728 126.042774 
L 94.441281 126.042774 
L 94.085835 126.042774 
L 93.730389 126.042774 
L 93.374942 124.092981 
L 93.019496 122.080242 
L 92.66405 120.001592 
L 92.308603 118.990641 
L 91.953157 118.990641 
L 91.597711 118.990641 
L 91.242264 118.990641 
L 90.886818 118.990641 
L 90.531372 118.990641 
L 90.175925 118.990641 
L 89.820479 118.990641 
L 89.465033 118.990641 
L 89.109586 118.990641 
L 88.75414 118.990641 
L 88.398693 118.990641 
L 88.043247 118.990641 
L 87.687801 118.990641 
L 87.332354 118.990641 
L 86.976908 118.990641 
L 86.621462 118.990641 
L 86.266015 118.990641 
L 85.910569 118.990641 
L 85.555123 118.990641 
L 85.199676 118.990641 
L 84.84423 118.990641 
L 84.488784 118.990641 
L 84.133337 118.990641 
L 83.777891 118.990641 
L 83.422444 118.990641 
L 83.066998 118.990641 
L 82.711552 118.990641 
L 82.356105 118.990641 
L 82.000659 118.990641 
L 81.645213 118.990641 
L 81.289766 118.990641 
L 80.93432 118.990641 
L 80.578874 118.990641 
L 80.223427 118.990641 
L 79.867981 118.990641 
L 79.512535 118.990641 
L 79.157088 118.990641 
L 78.801642 118.990641 
L 78.446195 118.990641 
L 78.090749 118.990641 
L 77.735303 118.990641 
L 77.379856 118.990641 
L 77.02441 118.990641 
L 76.668964 118.990641 
L 76.313517 114.419952 
L 75.958071 109.397881 
L 75.602625 103.847779 
L 75.247178 100.888514 
L 74.891732 100.888514 
L 74.536286 100.888514 
L 74.180839 100.888514 
L 73.825393 93.542678 
L 73.469947 85.083933 
L 73.1145 75.206467 
L 72.759054 63.473712 
L 72.403607 49.235143 
L 72.048161 31.466063 
L 71.692715 8.427302 
L 71.337268 -23.159888 
L 70.981822 -70.533773 
L 70.626376 -154.49127 
L 70.270929 -225.946553 
z
" clip-path="url(#p4a39aa5954)" style="fill: #1f77b4; fill-opacity: 0.333333"/>
   </g>
   <g id="matplotlib.axis_1">
    <g id="xtick_1">
     <g id="line2d_1">
      <defs>
       <path id="m87e3f16656" d="M 0 0 
L 0 3.5 
" style="stroke: #000000; stroke-width: 0.8"/>
      </defs>
      <g>
       <use xlink:href="#m87e3f16656" x="69.560037" y="288.199219" style="stroke: #000000; stroke-width: 0.8"/>
      </g>
     </g>
     <g id="text_1">
      <!-- 0 -->
      <g transform="translate(66.378787 302.797656) scale(0.1 -0.1)">
       <defs>
        <path id="DejaVuSans-30" d="M 2034 4250 
Q 1547 4250 1301 3770 
Q 1056 3291 1056 2328 
Q 1056 1369 1301 889 
Q 1547 409 2034 409 
Q 2525 409 2770 889 
Q 3016 1369 3016 2328 
Q 3016 3291 2770 3770 
Q 2525 4250 2034 4250 
z
M 2034 4750 
Q 2819 4750 3233 4129 
Q 3647 3509 3647 2328 
Q 3647 1150 3233 529 
Q 2819 -91 2034 -91 
Q 1250 -91 836 529 
Q 422 1150 422 2328 
Q 422 3509 836 4129 
Q 1250 4750 2034 4750 
z
" transform="scale(0.015625)"/>
       </defs>
       <use xlink:href="#DejaVuSans-30"/>
      </g>
     </g>
    </g>
    <g id="xtick_2">
     <g id="line2d_2">
      <g>
       <use xlink:href="#m87e3f16656" x="140.649308" y="288.199219" style="stroke: #000000; stroke-width: 0.8"/>
      </g>
     </g>
     <g id="text_2">
      <!-- 200 -->
      <g transform="translate(131.105558 302.797656) scale(0.1 -0.1)">
       <defs>
        <path id="DejaVuSans-32" d="M 1228 531 
L 3431 531 
L 3431 0 
L 469 0 
L 469 531 
Q 828 903 1448 1529 
Q 2069 2156 2228 2338 
Q 2531 2678 2651 2914 
Q 2772 3150 2772 3378 
Q 2772 3750 2511 3984 
Q 2250 4219 1831 4219 
Q 1534 4219 1204 4116 
Q 875 4013 500 3803 
L 500 4441 
Q 881 4594 1212 4672 
Q 1544 4750 1819 4750 
Q 2544 4750 2975 4387 
Q 3406 4025 3406 3419 
Q 3406 3131 3298 2873 
Q 3191 2616 2906 2266 
Q 2828 2175 2409 1742 
Q 1991 1309 1228 531 
z
" transform="scale(0.015625)"/>
       </defs>
       <use xlink:href="#DejaVuSans-32"/>
       <use xlink:href="#DejaVuSans-30" x="63.623047"/>
       <use xlink:href="#DejaVuSans-30" x="127.246094"/>
      </g>
     </g>
    </g>
    <g id="xtick_3">
     <g id="line2d_3">
      <g>
       <use xlink:href="#m87e3f16656" x="211.738579" y="288.199219" style="stroke: #000000; stroke-width: 0.8"/>
      </g>
     </g>
     <g id="text_3">
      <!-- 400 -->
      <g transform="translate(202.194829 302.797656) scale(0.1 -0.1)">
       <defs>
        <path id="DejaVuSans-34" d="M 2419 4116 
L 825 1625 
L 2419 1625 
L 2419 4116 
z
M 2253 4666 
L 3047 4666 
L 3047 1625 
L 3713 1625 
L 3713 1100 
L 3047 1100 
L 3047 0 
L 2419 0 
L 2419 1100 
L 313 1100 
L 313 1709 
L 2253 4666 
z
" transform="scale(0.015625)"/>
       </defs>
       <use xlink:href="#DejaVuSans-34"/>
       <use xlink:href="#DejaVuSans-30" x="63.623047"/>
       <use xlink:href="#DejaVuSans-30" x="127.246094"/>
      </g>
     </g>
    </g>
    <g id="xtick_4">
     <g id="line2d_4">
      <g>
       <use xlink:href="#m87e3f16656" x="282.82785" y="288.199219" style="stroke: #000000; stroke-width: 0.8"/>
      </g>
     </g>
     <g id="text_4">
      <!-- 600 -->
      <g transform="translate(273.2841 302.797656) scale(0.1 -0.1)">
       <defs>
        <path id="DejaVuSans-36" d="M 2113 2584 
Q 1688 2584 1439 2293 
Q 1191 2003 1191 1497 
Q 1191 994 1439 701 
Q 1688 409 2113 409 
Q 2538 409 2786 701 
Q 3034 994 3034 1497 
Q 3034 2003 2786 2293 
Q 2538 2584 2113 2584 
z
M 3366 4563 
L 3366 3988 
Q 3128 4100 2886 4159 
Q 2644 4219 2406 4219 
Q 1781 4219 1451 3797 
Q 1122 3375 1075 2522 
Q 1259 2794 1537 2939 
Q 1816 3084 2150 3084 
Q 2853 3084 3261 2657 
Q 3669 2231 3669 1497 
Q 3669 778 3244 343 
Q 2819 -91 2113 -91 
Q 1303 -91 875 529 
Q 447 1150 447 2328 
Q 447 3434 972 4092 
Q 1497 4750 2381 4750 
Q 2619 4750 2861 4703 
Q 3103 4656 3366 4563 
z
" transform="scale(0.015625)"/>
       </defs>
       <use xlink:href="#DejaVuSans-36"/>
       <use xlink:href="#DejaVuSans-30" x="63.623047"/>
       <use xlink:href="#DejaVuSans-30" x="127.246094"/>
      </g>
     </g>
    </g>
    <g id="xtick_5">
     <g id="line2d_5">
      <g>
       <use xlink:href="#m87e3f16656" x="353.917121" y="288.199219" style="stroke: #000000; stroke-width: 0.8"/>
      </g>
     </g>
     <g id="text_5">
      <!-- 800 -->
      <g transform="translate(344.373371 302.797656) scale(0.1 -0.1)">
       <defs>
        <path id="DejaVuSans-38" d="M 2034 2216 
Q 1584 2216 1326 1975 
Q 1069 1734 1069 1313 
Q 1069 891 1326 650 
Q 1584 409 2034 409 
Q 2484 409 2743 651 
Q 3003 894 3003 1313 
Q 3003 1734 2745 1975 
Q 2488 2216 2034 2216 
z
M 1403 2484 
Q 997 2584 770 2862 
Q 544 3141 544 3541 
Q 544 4100 942 4425 
Q 1341 4750 2034 4750 
Q 2731 4750 3128 4425 
Q 3525 4100 3525 3541 
Q 3525 3141 3298 2862 
Q 3072 2584 2669 2484 
Q 3125 2378 3379 2068 
Q 3634 1759 3634 1313 
Q 3634 634 3220 271 
Q 2806 -91 2034 -91 
Q 1263 -91 848 271 
Q 434 634 434 1313 
Q 434 1759 690 2068 
Q 947 2378 1403 2484 
z
M 1172 3481 
Q 1172 3119 1398 2916 
Q 1625 2713 2034 2713 
Q 2441 2713 2670 2916 
Q 2900 3119 2900 3481 
Q 2900 3844 2670 4047 
Q 2441 4250 2034 4250 
Q 1625 4250 1398 4047 
Q 1172 3844 1172 3481 
z
" transform="scale(0.015625)"/>
       </defs>
       <use xlink:href="#DejaVuSans-38"/>
       <use xlink:href="#DejaVuSans-30" x="63.623047"/>
       <use xlink:href="#DejaVuSans-30" x="127.246094"/>
      </g>
     </g>
    </g>
    <g id="xtick_6">
     <g id="line2d_6">
      <g>
       <use xlink:href="#m87e3f16656" x="425.006392" y="288.199219" style="stroke: #000000; stroke-width: 0.8"/>
      </g>
     </g>
     <g id="text_6">
      <!-- 1000 -->
      <g transform="translate(412.281392 302.797656) scale(0.1 -0.1)">
       <defs>
        <path id="DejaVuSans-31" d="M 794 531 
L 1825 531 
L 1825 4091 
L 703 3866 
L 703 4441 
L 1819 4666 
L 2450 4666 
L 2450 531 
L 3481 531 
L 3481 0 
L 794 0 
L 794 531 
z
" transform="scale(0.015625)"/>
       </defs>
       <use xlink:href="#DejaVuSans-31"/>
       <use xlink:href="#DejaVuSans-30" x="63.623047"/>
       <use xlink:href="#DejaVuSans-30" x="127.246094"/>
       <use xlink:href="#DejaVuSans-30" x="190.869141"/>
      </g>
     </g>
    </g>
    <g id="text_7">
     <!-- n -->
     <g transform="translate(244.292188 316.475781) scale(0.1 -0.1)">
      <defs>
       <path id="DejaVuSans-6e" d="M 3513 2113 
L 3513 0 
L 2938 0 
L 2938 2094 
Q 2938 2591 2744 2837 
Q 2550 3084 2163 3084 
Q 1697 3084 1428 2787 
Q 1159 2491 1159 1978 
L 1159 0 
L 581 0 
L 581 3500 
L 1159 3500 
L 1159 2956 
Q 1366 3272 1645 3428 
Q 1925 3584 2291 3584 
Q 2894 3584 3203 3211 
Q 3513 2838 3513 2113 
z
" transform="scale(0.015625)"/>
      </defs>
      <use xlink:href="#DejaVuSans-6e"/>
     </g>
    </g>
   </g>
   <g id="matplotlib.axis_2">
    <g id="ytick_1">
     <g id="line2d_7">
      <defs>
       <path id="mc2904a5fd6" d="M 0 0 
L -3.5 0 
" style="stroke: #000000; stroke-width: 0.8"/>
      </defs>
      <g>
       <use xlink:href="#mc2904a5fd6" x="52.160938" y="288.199219" style="stroke: #000000; stroke-width: 0.8"/>
      </g>
     </g>
     <g id="text_8">
      <!-- 1.0 -->
      <g transform="translate(20.878125 291.998437) scale(0.1 -0.1)">
       <defs>
        <path id="DejaVuSans-2212" d="M 678 2272 
L 4684 2272 
L 4684 1741 
L 678 1741 
L 678 2272 
z
" transform="scale(0.015625)"/>
        <path id="DejaVuSans-2e" d="M 684 794 
L 1344 794 
L 1344 0 
L 684 0 
L 684 794 
z
" transform="scale(0.015625)"/>
       </defs>
       <use xlink:href="#DejaVuSans-2212"/>
       <use xlink:href="#DejaVuSans-31" x="83.789062"/>
       <use xlink:href="#DejaVuSans-2e" x="147.412109"/>
       <use xlink:href="#DejaVuSans-30" x="179.199219"/>
      </g>
     </g>
    </g>
    <g id="ytick_2">
     <g id="line2d_8">
      <g>
       <use xlink:href="#mc2904a5fd6" x="52.160938" y="241.999219" style="stroke: #000000; stroke-width: 0.8"/>
      </g>
     </g>
     <g id="text_9">
      <!-- 0.5 -->
      <g transform="translate(20.878125 245.798437) scale(0.1 -0.1)">
       <defs>
        <path id="DejaVuSans-35" d="M 691 4666 
L 3169 4666 
L 3169 4134 
L 1269 4134 
L 1269 2991 
Q 1406 3038 1543 3061 
Q 1681 3084 1819 3084 
Q 2600 3084 3056 2656 
Q 3513 2228 3513 1497 
Q 3513 744 3044 326 
Q 2575 -91 1722 -91 
Q 1428 -91 1123 -41 
Q 819 9 494 109 
L 494 744 
Q 775 591 1075 516 
Q 1375 441 1709 441 
Q 2250 441 2565 725 
Q 2881 1009 2881 1497 
Q 2881 1984 2565 2268 
Q 2250 2553 1709 2553 
Q 1456 2553 1204 2497 
Q 953 2441 691 2322 
L 691 4666 
z
" transform="scale(0.015625)"/>
       </defs>
       <use xlink:href="#DejaVuSans-2212"/>
       <use xlink:href="#DejaVuSans-30" x="83.789062"/>
       <use xlink:href="#DejaVuSans-2e" x="147.412109"/>
       <use xlink:href="#DejaVuSans-35" x="179.199219"/>
      </g>
     </g>
    </g>
    <g id="ytick_3">
     <g id="line2d_9">
      <g>
       <use xlink:href="#mc2904a5fd6" x="52.160938" y="195.799219" style="stroke: #000000; stroke-width: 0.8"/>
      </g>
     </g>
     <g id="text_10">
      <!-- 0.0 -->
      <g transform="translate(29.257813 199.598437) scale(0.1 -0.1)">
       <use xlink:href="#DejaVuSans-30"/>
       <use xlink:href="#DejaVuSans-2e" x="63.623047"/>
       <use xlink:href="#DejaVuSans-30" x="95.410156"/>
      </g>
     </g>
    </g>
    <g id="ytick_4">
     <g id="line2d_10">
      <g>
       <use xlink:href="#mc2904a5fd6" x="52.160938" y="149.599219" style="stroke: #000000; stroke-width: 0.8"/>
      </g>
     </g>
     <g id="text_11">
      <!-- 0.5 -->
      <g transform="translate(29.257813 153.398437) scale(0.1 -0.1)">
       <use xlink:href="#DejaVuSans-30"/>
       <use xlink:href="#DejaVuSans-2e" x="63.623047"/>
       <use xlink:href="#DejaVuSans-35" x="95.410156"/>
      </g>
     </g>
    </g>
    <g id="ytick_5">
     <g id="line2d_11">
      <g>
       <use xlink:href="#mc2904a5fd6" x="52.160938" y="103.399219" style="stroke: #000000; stroke-width: 0.8"/>
      </g>
     </g>
     <g id="text_12">
      <!-- 1.0 -->
      <g transform="translate(29.257813 107.198437) scale(0.1 -0.1)">
       <use xlink:href="#DejaVuSans-31"/>
       <use xlink:href="#DejaVuSans-2e" x="63.623047"/>
       <use xlink:href="#DejaVuSans-30" x="95.410156"/>
      </g>
     </g>
    </g>
    <g id="ytick_6">
     <g id="line2d_12">
      <g>
       <use xlink:href="#mc2904a5fd6" x="52.160938" y="57.199219" style="stroke: #000000; stroke-width: 0.8"/>
      </g>
     </g>
     <g id="text_13">
      <!-- 1.5 -->
      <g transform="translate(29.257813 60.998437) scale(0.1 -0.1)">
       <use xlink:href="#DejaVuSans-31"/>
       <use xlink:href="#DejaVuSans-2e" x="63.623047"/>
       <use xlink:href="#DejaVuSans-35" x="95.410156"/>
      </g>
     </g>
    </g>
    <g id="ytick_7">
     <g id="line2d_13">
      <g>
       <use xlink:href="#mc2904a5fd6" x="52.160938" y="10.999219" style="stroke: #000000; stroke-width: 0.8"/>
      </g>
     </g>
     <g id="text_14">
      <!-- 2.0 -->
      <g transform="translate(29.257813 14.798437) scale(0.1 -0.1)">
       <use xlink:href="#DejaVuSans-32"/>
       <use xlink:href="#DejaVuSans-2e" x="63.623047"/>
       <use xlink:href="#DejaVuSans-30" x="95.410156"/>
      </g>
     </g>
    </g>
    <g id="text_15">
     <!-- Parameter -->
     <g transform="translate(14.798438 175.611719) rotate(-90) scale(0.1 -0.1)">
      <defs>
       <path id="DejaVuSans-50" d="M 1259 4147 
L 1259 2394 
L 2053 2394 
Q 2494 2394 2734 2622 
Q 2975 2850 2975 3272 
Q 2975 3691 2734 3919 
Q 2494 4147 2053 4147 
L 1259 4147 
z
M 628 4666 
L 2053 4666 
Q 2838 4666 3239 4311 
Q 3641 3956 3641 3272 
Q 3641 2581 3239 2228 
Q 2838 1875 2053 1875 
L 1259 1875 
L 1259 0 
L 628 0 
L 628 4666 
z
" transform="scale(0.015625)"/>
       <path id="DejaVuSans-61" d="M 2194 1759 
Q 1497 1759 1228 1600 
Q 959 1441 959 1056 
Q 959 750 1161 570 
Q 1363 391 1709 391 
Q 2188 391 2477 730 
Q 2766 1069 2766 1631 
L 2766 1759 
L 2194 1759 
z
M 3341 1997 
L 3341 0 
L 2766 0 
L 2766 531 
Q 2569 213 2275 61 
Q 1981 -91 1556 -91 
Q 1019 -91 701 211 
Q 384 513 384 1019 
Q 384 1609 779 1909 
Q 1175 2209 1959 2209 
L 2766 2209 
L 2766 2266 
Q 2766 2663 2505 2880 
Q 2244 3097 1772 3097 
Q 1472 3097 1187 3025 
Q 903 2953 641 2809 
L 641 3341 
Q 956 3463 1253 3523 
Q 1550 3584 1831 3584 
Q 2591 3584 2966 3190 
Q 3341 2797 3341 1997 
z
" transform="scale(0.015625)"/>
       <path id="DejaVuSans-72" d="M 2631 2963 
Q 2534 3019 2420 3045 
Q 2306 3072 2169 3072 
Q 1681 3072 1420 2755 
Q 1159 2438 1159 1844 
L 1159 0 
L 581 0 
L 581 3500 
L 1159 3500 
L 1159 2956 
Q 1341 3275 1631 3429 
Q 1922 3584 2338 3584 
Q 2397 3584 2469 3576 
Q 2541 3569 2628 3553 
L 2631 2963 
z
" transform="scale(0.015625)"/>
       <path id="DejaVuSans-6d" d="M 3328 2828 
Q 3544 3216 3844 3400 
Q 4144 3584 4550 3584 
Q 5097 3584 5394 3201 
Q 5691 2819 5691 2113 
L 5691 0 
L 5113 0 
L 5113 2094 
Q 5113 2597 4934 2840 
Q 4756 3084 4391 3084 
Q 3944 3084 3684 2787 
Q 3425 2491 3425 1978 
L 3425 0 
L 2847 0 
L 2847 2094 
Q 2847 2600 2669 2842 
Q 2491 3084 2119 3084 
Q 1678 3084 1418 2786 
Q 1159 2488 1159 1978 
L 1159 0 
L 581 0 
L 581 3500 
L 1159 3500 
L 1159 2956 
Q 1356 3278 1631 3431 
Q 1906 3584 2284 3584 
Q 2666 3584 2933 3390 
Q 3200 3197 3328 2828 
z
" transform="scale(0.015625)"/>
       <path id="DejaVuSans-65" d="M 3597 1894 
L 3597 1613 
L 953 1613 
Q 991 1019 1311 708 
Q 1631 397 2203 397 
Q 2534 397 2845 478 
Q 3156 559 3463 722 
L 3463 178 
Q 3153 47 2828 -22 
Q 2503 -91 2169 -91 
Q 1331 -91 842 396 
Q 353 884 353 1716 
Q 353 2575 817 3079 
Q 1281 3584 2069 3584 
Q 2775 3584 3186 3129 
Q 3597 2675 3597 1894 
z
M 3022 2063 
Q 3016 2534 2758 2815 
Q 2500 3097 2075 3097 
Q 1594 3097 1305 2825 
Q 1016 2553 972 2059 
L 3022 2063 
z
" transform="scale(0.015625)"/>
       <path id="DejaVuSans-74" d="M 1172 4494 
L 1172 3500 
L 2356 3500 
L 2356 3053 
L 1172 3053 
L 1172 1153 
Q 1172 725 1289 603 
Q 1406 481 1766 481 
L 2356 481 
L 2356 0 
L 1766 0 
Q 1100 0 847 248 
Q 594 497 594 1153 
L 594 3053 
L 172 3053 
L 172 3500 
L 594 3500 
L 594 4494 
L 1172 4494 
z
" transform="scale(0.015625)"/>
      </defs>
      <use xlink:href="#DejaVuSans-50"/>
      <use xlink:href="#DejaVuSans-61" x="55.802734"/>
      <use xlink:href="#DejaVuSans-72" x="117.082031"/>
      <use xlink:href="#DejaVuSans-61" x="158.195312"/>
      <use xlink:href="#DejaVuSans-6d" x="219.474609"/>
      <use xlink:href="#DejaVuSans-65" x="316.886719"/>
      <use xlink:href="#DejaVuSans-74" x="378.410156"/>
      <use xlink:href="#DejaVuSans-65" x="417.619141"/>
      <use xlink:href="#DejaVuSans-72" x="479.142578"/>
     </g>
    </g>
   </g>
   <g id="line2d_14">
    <path d="M 69.915483 149.599219 
L 425.006392 149.599219 
L 425.006392 149.599219 
" clip-path="url(#p4a39aa5954)" style="fill: none; stroke-dasharray: 5.55,2.4; stroke-dashoffset: 0; stroke: #1f77b4; stroke-width: 1.5"/>
   </g>
   <g id="patch_3">
    <path d="M 52.160938 288.199219 
L 52.160938 10.999219 
" style="fill: none; stroke: #000000; stroke-width: 0.8; stroke-linejoin: miter; stroke-linecap: square"/>
   </g>
   <g id="patch_4">
    <path d="M 442.760938 288.199219 
L 442.760938 10.999219 
" style="fill: none; stroke: #000000; stroke-width: 0.8; stroke-linejoin: miter; stroke-linecap: square"/>
   </g>
   <g id="patch_5">
    <path d="M 52.160938 288.199219 
L 442.760938 288.199219 
" style="fill: none; stroke: #000000; stroke-width: 0.8; stroke-linejoin: miter; stroke-linecap: square"/>
   </g>
   <g id="patch_6">
    <path d="M 52.160938 10.999219 
L 442.760938 10.999219 
" style="fill: none; stroke: #000000; stroke-width: 0.8; stroke-linejoin: miter; stroke-linecap: square"/>
   </g>
  </g>
  <g id="axes_2">
   <g id="matplotlib.axis_3">
    <g id="ytick_8">
     <g id="line2d_15">
      <defs>
       <path id="m7147f75fbc" d="M 0 0 
L 3.5 0 
" style="stroke: #000000; stroke-width: 0.8"/>
      </defs>
      <g>
       <use xlink:href="#m7147f75fbc" x="442.760938" y="275.599219" style="stroke: #000000; stroke-width: 0.8"/>
      </g>
     </g>
     <g id="text_16">
      <!-- 0.0 -->
      <g transform="translate(449.760938 279.398438) scale(0.1 -0.1)">
       <use xlink:href="#DejaVuSans-30"/>
       <use xlink:href="#DejaVuSans-2e" x="63.623047"/>
       <use xlink:href="#DejaVuSans-30" x="95.410156"/>
      </g>
     </g>
    </g>
    <g id="ytick_9">
     <g id="line2d_16">
      <g>
       <use xlink:href="#m7147f75fbc" x="442.760938" y="225.199219" style="stroke: #000000; stroke-width: 0.8"/>
      </g>
     </g>
     <g id="text_17">
      <!-- 0.2 -->
      <g transform="translate(449.760938 228.998438) scale(0.1 -0.1)">
       <use xlink:href="#DejaVuSans-30"/>
       <use xlink:href="#DejaVuSans-2e" x="63.623047"/>
       <use xlink:href="#DejaVuSans-32" x="95.410156"/>
      </g>
     </g>
    </g>
    <g id="ytick_10">
     <g id="line2d_17">
      <g>
       <use xlink:href="#m7147f75fbc" x="442.760938" y="174.799219" style="stroke: #000000; stroke-width: 0.8"/>
      </g>
     </g>
     <g id="text_18">
      <!-- 0.4 -->
      <g transform="translate(449.760938 178.598438) scale(0.1 -0.1)">
       <use xlink:href="#DejaVuSans-30"/>
       <use xlink:href="#DejaVuSans-2e" x="63.623047"/>
       <use xlink:href="#DejaVuSans-34" x="95.410156"/>
      </g>
     </g>
    </g>
    <g id="ytick_11">
     <g id="line2d_18">
      <g>
       <use xlink:href="#m7147f75fbc" x="442.760938" y="124.399219" style="stroke: #000000; stroke-width: 0.8"/>
      </g>
     </g>
     <g id="text_19">
      <!-- 0.6 -->
      <g transform="translate(449.760938 128.198438) scale(0.1 -0.1)">
       <use xlink:href="#DejaVuSans-30"/>
       <use xlink:href="#DejaVuSans-2e" x="63.623047"/>
       <use xlink:href="#DejaVuSans-36" x="95.410156"/>
      </g>
     </g>
    </g>
    <g id="ytick_12">
     <g id="line2d_19">
      <g>
       <use xlink:href="#m7147f75fbc" x="442.760938" y="73.999219" style="stroke: #000000; stroke-width: 0.8"/>
      </g>
     </g>
     <g id="text_20">
      <!-- 0.8 -->
      <g transform="translate(449.760938 77.798438) scale(0.1 -0.1)">
       <use xlink:href="#DejaVuSans-30"/>
       <use xlink:href="#DejaVuSans-2e" x="63.623047"/>
       <use xlink:href="#DejaVuSans-38" x="95.410156"/>
      </g>
     </g>
    </g>
    <g id="ytick_13">
     <g id="line2d_20">
      <g>
       <use xlink:href="#m7147f75fbc" x="442.760938" y="23.599219" style="stroke: #000000; stroke-width: 0.8"/>
      </g>
     </g>
     <g id="text_21">
      <!-- 1.0 -->
      <g transform="translate(449.760938 27.398437) scale(0.1 -0.1)">
       <use xlink:href="#DejaVuSans-31"/>
       <use xlink:href="#DejaVuSans-2e" x="63.623047"/>
       <use xlink:href="#DejaVuSans-30" x="95.410156"/>
      </g>
     </g>
    </g>
    <g id="text_22">
     <!-- P-value -->
     <g transform="translate(477.2625 167.832031) rotate(-90) scale(0.1 -0.1)">
      <defs>
       <path id="DejaVuSans-2d" d="M 313 2009 
L 1997 2009 
L 1997 1497 
L 313 1497 
L 313 2009 
z
" transform="scale(0.015625)"/>
       <path id="DejaVuSans-76" d="M 191 3500 
L 800 3500 
L 1894 563 
L 2988 3500 
L 3597 3500 
L 2284 0 
L 1503 0 
L 191 3500 
z
" transform="scale(0.015625)"/>
       <path id="DejaVuSans-6c" d="M 603 4863 
L 1178 4863 
L 1178 0 
L 603 0 
L 603 4863 
z
" transform="scale(0.015625)"/>
       <path id="DejaVuSans-75" d="M 544 1381 
L 544 3500 
L 1119 3500 
L 1119 1403 
Q 1119 906 1312 657 
Q 1506 409 1894 409 
Q 2359 409 2629 706 
Q 2900 1003 2900 1516 
L 2900 3500 
L 3475 3500 
L 3475 0 
L 2900 0 
L 2900 538 
Q 2691 219 2414 64 
Q 2138 -91 1772 -91 
Q 1169 -91 856 284 
Q 544 659 544 1381 
z
M 1991 3584 
L 1991 3584 
z
" transform="scale(0.015625)"/>
      </defs>
      <use xlink:href="#DejaVuSans-50"/>
      <use xlink:href="#DejaVuSans-2d" x="58.052734"/>
      <use xlink:href="#DejaVuSans-76" x="91.511719"/>
      <use xlink:href="#DejaVuSans-61" x="150.691406"/>
      <use xlink:href="#DejaVuSans-6c" x="211.970703"/>
      <use xlink:href="#DejaVuSans-75" x="239.753906"/>
      <use xlink:href="#DejaVuSans-65" x="303.132812"/>
     </g>
    </g>
   </g>
   <g id="line2d_21">
    <path d="M 69.915483 23.599219 
L 73.1145 23.599219 
L 73.469947 26.048482 
L 74.180839 33.163878 
L 76.313517 33.163878 
L 76.668964 35.420068 
L 84.133337 35.420068 
L 84.488784 37.383084 
L 84.84423 37.383084 
L 85.199676 55.725726 
L 85.910569 55.725726 
L 86.266015 66.471667 
L 100.48387 66.471667 
L 100.839316 85.042296 
L 101.905655 85.042296 
L 102.261101 88.015439 
L 106.526458 88.015439 
L 106.881904 88.784777 
L 107.592797 88.784777 
L 107.948243 100.043951 
L 108.303689 100.043951 
L 108.659136 118.869893 
L 109.370028 118.869893 
L 109.725475 129.286533 
L 110.436367 129.286533 
L 110.791814 139.313297 
L 111.502707 182.885232 
L 111.858153 200.741259 
L 117.189848 200.741259 
L 117.545295 206.689468 
L 117.900741 206.689468 
L 118.256187 216.712704 
L 118.611634 216.712704 
L 119.322526 236.385803 
L 126.076007 236.385803 
L 126.431453 240.292563 
L 127.497793 240.292563 
L 127.853239 241.040393 
L 138.161183 241.040393 
L 138.51663 241.2821 
L 139.227522 254.712737 
L 140.293861 254.712737 
L 140.649308 255.165328 
L 141.004754 259.880841 
L 141.3602 259.880841 
L 141.715647 262.563917 
L 143.848325 262.563917 
L 144.203771 264.113152 
L 144.559218 264.113152 
L 144.914664 266.122353 
L 147.047342 266.122353 
L 147.402788 267.264122 
L 149.535467 267.264122 
L 149.890913 268.272414 
L 150.246359 268.272414 
L 151.312698 272.286841 
L 152.023591 272.286841 
L 152.379037 272.645569 
L 156.288947 272.645569 
L 156.644394 272.805523 
L 158.777072 272.805523 
L 159.132518 273.154249 
L 159.487965 273.154249 
L 159.843411 273.62134 
L 160.198857 273.62134 
L 160.554304 274.003904 
L 162.331535 274.003904 
L 163.042428 274.686124 
L 163.397874 274.686124 
L 163.753321 274.869726 
L 171.573141 274.869726 
L 171.928587 275.002355 
L 172.284033 275.002355 
L 172.63948 275.122574 
L 176.54939 275.219534 
L 177.260282 275.30634 
L 191.12269 275.350027 
L 192.189029 275.471254 
L 212.804918 275.578146 
L 222.401969 275.590443 
L 425.006392 275.599219 
L 425.006392 275.599219 
" clip-path="url(#p4a39aa5954)" style="fill: none; stroke: #000000; stroke-width: 1.5; stroke-linecap: square"/>
   </g>
   <g id="patch_7">
    <path d="M 52.160938 288.199219 
L 52.160938 10.999219 
" style="fill: none; stroke: #000000; stroke-width: 0.8; stroke-linejoin: miter; stroke-linecap: square"/>
   </g>
   <g id="patch_8">
    <path d="M 442.760938 288.199219 
L 442.760938 10.999219 
" style="fill: none; stroke: #000000; stroke-width: 0.8; stroke-linejoin: miter; stroke-linecap: square"/>
   </g>
   <g id="patch_9">
    <path d="M 52.160938 288.199219 
L 442.760938 288.199219 
" style="fill: none; stroke: #000000; stroke-width: 0.8; stroke-linejoin: miter; stroke-linecap: square"/>
   </g>
   <g id="patch_10">
    <path d="M 52.160938 10.999219 
L 442.760938 10.999219 
" style="fill: none; stroke: #000000; stroke-width: 0.8; stroke-linejoin: miter; stroke-linecap: square"/>
   </g>
  </g>
  <g id="legend_1">
   <g id="patch_11">
    <path d="M 348.260938 63.033594 
L 435.760938 63.033594 
Q 437.760938 63.033594 437.760938 61.033594 
L 437.760938 17.999219 
Q 437.760938 15.999219 435.760938 15.999219 
L 348.260938 15.999219 
Q 346.260938 15.999219 346.260938 17.999219 
L 346.260938 61.033594 
Q 346.260938 63.033594 348.260938 63.033594 
z
" style="fill: #ffffff; opacity: 0.8; stroke: #cccccc; stroke-linejoin: miter"/>
   </g>
   <g id="patch_12">
    <path d="M 350.260938 27.597656 
L 370.260938 27.597656 
L 370.260938 20.597656 
L 350.260938 20.597656 
z
" style="fill: #1f77b4; fill-opacity: 0.333333"/>
   </g>
   <g id="text_23">
    <!-- $- \delta_0 +  \delta_1$ CI -->
    <g transform="translate(378.260938 27.597656) scale(0.1 -0.1)">
     <defs>
      <path id="DejaVuSans-Oblique-3b4" d="M 3472 4053 
Q 3197 4272 2450 4272 
Q 1659 4272 1588 3906 
Q 1531 3619 2328 3469 
Q 2953 3353 3253 3003 
Q 3616 2581 3447 1716 
Q 3284 888 2763 400 
Q 2238 -91 1488 -91 
Q 741 -91 406 400 
Q 72 888 241 1747 
Q 363 2384 891 2900 
Q 1097 3100 1353 3213 
Q 913 3459 1000 3900 
Q 1166 4750 2544 4750 
Q 3234 4750 3566 4531 
L 3472 4053 
z
M 1753 3056 
Q 1525 2966 1306 2738 
Q 969 2384 847 1747 
Q 722 1113 919 756 
Q 1119 397 1584 397 
Q 2044 397 2381 759 
Q 2722 1122 2838 1716 
Q 2956 2338 2731 2638 
Q 2491 2959 2103 2994 
Q 1906 3013 1753 3056 
z
" transform="scale(0.015625)"/>
      <path id="DejaVuSans-2b" d="M 2944 4013 
L 2944 2272 
L 4684 2272 
L 4684 1741 
L 2944 1741 
L 2944 0 
L 2419 0 
L 2419 1741 
L 678 1741 
L 678 2272 
L 2419 2272 
L 2419 4013 
L 2944 4013 
z
" transform="scale(0.015625)"/>
      <path id="DejaVuSans-20" transform="scale(0.015625)"/>
      <path id="DejaVuSans-43" d="M 4122 4306 
L 4122 3641 
Q 3803 3938 3442 4084 
Q 3081 4231 2675 4231 
Q 1875 4231 1450 3742 
Q 1025 3253 1025 2328 
Q 1025 1406 1450 917 
Q 1875 428 2675 428 
Q 3081 428 3442 575 
Q 3803 722 4122 1019 
L 4122 359 
Q 3791 134 3420 21 
Q 3050 -91 2638 -91 
Q 1578 -91 968 557 
Q 359 1206 359 2328 
Q 359 3453 968 4101 
Q 1578 4750 2638 4750 
Q 3056 4750 3426 4639 
Q 3797 4528 4122 4306 
z
" transform="scale(0.015625)"/>
      <path id="DejaVuSans-49" d="M 628 4666 
L 1259 4666 
L 1259 0 
L 628 0 
L 628 4666 
z
" transform="scale(0.015625)"/>
     </defs>
     <use xlink:href="#DejaVuSans-2212" transform="translate(0 0.78125)"/>
     <use xlink:href="#DejaVuSans-Oblique-3b4" transform="translate(83.789062 0.78125)"/>
     <use xlink:href="#DejaVuSans-30" transform="translate(144.970703 -15.625) scale(0.7)"/>
     <use xlink:href="#DejaVuSans-2b" transform="translate(211.723633 0.78125)"/>
     <use xlink:href="#DejaVuSans-Oblique-3b4" transform="translate(314.995117 0.78125)"/>
     <use xlink:href="#DejaVuSans-31" transform="translate(376.176758 -15.625) scale(0.7)"/>
     <use xlink:href="#DejaVuSans-20" transform="translate(423.447266 0.78125)"/>
     <use xlink:href="#DejaVuSans-43" transform="translate(455.234375 0.78125)"/>
     <use xlink:href="#DejaVuSans-49" transform="translate(525.058594 0.78125)"/>
    </g>
   </g>
   <g id="line2d_22">
    <path d="M 350.260938 38.775781 
L 360.260938 38.775781 
L 370.260938 38.775781 
" style="fill: none; stroke-dasharray: 5.55,2.4; stroke-dashoffset: 0; stroke: #1f77b4; stroke-width: 1.5"/>
   </g>
   <g id="text_24">
    <!-- $- \delta_0 +  \delta_1$ -->
    <g transform="translate(378.260938 42.275781) scale(0.1 -0.1)">
     <use xlink:href="#DejaVuSans-2212" transform="translate(0 0.78125)"/>
     <use xlink:href="#DejaVuSans-Oblique-3b4" transform="translate(83.789062 0.78125)"/>
     <use xlink:href="#DejaVuSans-30" transform="translate(144.970703 -15.625) scale(0.7)"/>
     <use xlink:href="#DejaVuSans-2b" transform="translate(211.723633 0.78125)"/>
     <use xlink:href="#DejaVuSans-Oblique-3b4" transform="translate(314.995117 0.78125)"/>
     <use xlink:href="#DejaVuSans-31" transform="translate(376.176758 -15.625) scale(0.7)"/>
    </g>
   </g>
   <g id="line2d_23">
    <path d="M 350.260938 53.453906 
L 360.260938 53.453906 
L 370.260938 53.453906 
" style="fill: none; stroke: #000000; stroke-width: 1.5; stroke-linecap: square"/>
   </g>
   <g id="text_25">
    <!-- P-value -->
    <g transform="translate(378.260938 56.953906) scale(0.1 -0.1)">
     <use xlink:href="#DejaVuSans-50"/>
     <use xlink:href="#DejaVuSans-2d" x="58.052734"/>
     <use xlink:href="#DejaVuSans-76" x="91.511719"/>
     <use xlink:href="#DejaVuSans-61" x="150.691406"/>
     <use xlink:href="#DejaVuSans-6c" x="211.970703"/>
     <use xlink:href="#DejaVuSans-75" x="239.753906"/>
     <use xlink:href="#DejaVuSans-65" x="303.132812"/>
    </g>
   </g>
  </g>
 </g>
 <defs>
  <clipPath id="p4a39aa5954">
   <rect x="52.160938" y="10.999219" width="390.6" height="277.2"/>
  </clipPath>
 </defs>
</svg>
